<svg width="287" height="27" viewBox="0 0 287 27" fill="none" xmlns="http://www.w3.org/2000/svg">
<path d="M83.3529 10.5516C82.0904 12.8773 81.1934 15.4023 80.1634 17.8277C78.4026 22.0804 74.9805 24.0738 70.6614 24.2067C63.186 24.4393 55.7106 24.2731 48.2352 24.2731C47.0724 24.2731 45.976 24.0073 45.0125 23.3429C43.6503 22.3794 43.019 20.984 43.6503 19.4224C45.3447 15.2362 46.9063 10.9503 48.9661 6.96345C50.6273 3.74072 53.9165 2.31209 57.4382 2.21242C65.0133 2.0463 72.5552 2.14597 80.1302 2.1792C81.5256 2.1792 82.8214 2.57789 83.8181 3.67428C84.8148 4.73744 85.0474 5.96673 84.549 7.32891C84.1503 8.39208 83.7184 9.48847 83.3529 10.5516C83.3197 10.5849 83.3529 10.5516 83.3529 10.5516ZM62.1228 18.0603C64.7475 18.0603 67.4054 18.1931 70.0301 18.027C72.7877 17.8277 75.1466 16.7977 76.0769 13.8076C76.243 13.276 76.542 12.7776 76.7414 12.2461C77.8378 9.72104 77.0404 8.35886 74.2496 8.09306C73.6848 8.02662 73.12 8.02662 72.5551 8.02662C68.3689 8.02662 64.2159 8.02662 60.0297 8.02662C59.1991 8.02662 58.3685 8.09306 57.5379 8.22596C55.1126 8.62465 53.1856 9.72104 52.355 12.2793C52.056 13.2428 51.5908 14.1398 51.1589 15.0369C50.6273 16.1333 51.0592 16.8974 51.9563 17.4954C52.5875 17.9274 53.3185 18.0603 54.0826 18.0603C56.7738 18.0603 59.4317 18.0603 62.1228 18.0603Z" fill="white"/>
<path d="M120.963 2.21246C121.793 2.47825 122.657 2.6776 123.355 3.2424C124.684 4.33879 125.116 5.83387 124.418 7.49507C122.856 11.3158 121.361 15.1698 119.534 18.8577C117.773 22.4791 114.417 24.1071 110.597 24.1735C101.227 24.3396 91.8583 24.2067 82.4892 24.2399C81.6586 24.2399 81.3928 24.1403 81.7582 23.2432C83.5191 19.2231 85.2135 15.1698 86.908 11.1165C87.1737 10.4852 87.4728 10.2194 88.1372 10.2527C89.3997 10.3191 90.6955 10.3191 91.958 10.2527C92.9547 10.1862 92.9547 10.5517 92.5893 11.3158C91.7587 13.2096 90.9945 15.1034 90.1307 16.9971C89.732 17.8609 89.8317 18.1267 90.8616 18.1267C95.513 18.0935 100.198 18.0935 104.849 18.0935C105.214 18.2264 105.613 18.16 105.979 18.0603C107.374 18.0603 108.769 18.1267 110.132 17.9938C111.527 17.8609 112.922 17.5287 113.952 16.4323L113.985 16.3991C114.55 16.2994 114.982 16.0336 115.015 15.3691L115.049 15.3359C116.045 14.2395 116.178 12.7445 116.909 11.5484C117.74 10.2194 116.942 8.7908 115.381 8.29245C114.417 7.99343 113.387 7.99343 112.391 7.99343C105.347 7.99343 98.337 7.99343 91.2935 7.99343C90.33 7.99343 89.3665 7.99343 88.2701 7.99343C89.0011 6.26578 89.732 4.67103 90.33 3.04306C90.5958 2.34536 90.928 2.11279 91.659 2.14601C101.327 2.17924 110.995 2.17924 120.664 2.17924C120.796 2.17924 120.896 2.21246 120.963 2.21246Z" fill="white"/>
<path d="M200.633 2.14602C204.853 2.77727 205.119 5.20262 203.923 8.62469C202.195 13.5418 199.039 16.0669 193.59 15.7678C194.686 18.3261 195.65 20.7182 196.713 23.0439C197.178 24.0406 197.045 24.3064 195.916 24.24C194.553 24.1735 193.191 24.1735 191.829 24.24C191.065 24.2732 190.733 23.9742 190.467 23.3097C189.57 21.1169 188.606 18.9573 187.709 16.7646C187.444 16.1001 187.111 15.7678 186.281 15.7678C181.397 15.8343 176.513 15.8011 171.662 15.7678C170.898 15.7678 170.499 16.0004 170.2 16.7313C169.336 18.9241 168.307 21.0837 167.443 23.2765C167.144 24.0406 166.745 24.2732 165.981 24.24C164.785 24.1735 163.589 24.1735 162.426 24.24C161.296 24.3064 161.329 23.9077 161.695 23.0771C162.526 21.2498 163.29 19.3893 164.087 17.5287C164.32 17.2297 164.519 16.9307 164.353 16.532C165.316 15.1034 165.815 13.4422 166.446 11.8806C166.845 10.9171 167.31 10.5185 168.439 10.5185C177.443 10.5849 186.447 10.5517 195.45 10.5517C195.75 10.5517 196.082 10.5849 196.381 10.5517C196.879 10.5185 197.976 8.99015 197.843 8.3589C197.677 7.59475 196.979 8.02666 196.547 8.02666C187.576 7.99343 178.606 7.99343 169.669 7.99343C169.204 7.99343 168.772 7.99343 168.14 7.99343C168.838 6.29901 169.569 4.90361 170.034 3.40853C170.4 2.31214 170.998 2.11279 172.028 2.11279C181.397 2.14602 190.733 2.11279 200.102 2.11279C200.301 2.14602 200.467 2.14602 200.633 2.14602Z" fill="white"/>
<path d="M164.386 16.5653C164.519 16.964 164.32 17.263 164.121 17.562C163.39 17.1301 163.29 17.7613 163.124 18.1932C162.194 20.3196 161.23 22.4459 160.366 24.6055C160.067 25.3364 159.669 25.569 158.904 25.569C145.515 25.5357 132.159 25.5357 118.77 25.5357C117.906 25.5357 117.74 25.4361 117.972 24.4394C118.57 21.8811 120.232 19.8212 121.062 17.3959C121.926 14.9041 123.089 12.5452 124.119 10.1198C124.684 8.79087 125.381 7.49513 125.381 6.00006C125.415 4.03984 124.019 2.27897 122.125 1.84706C121.627 1.74739 121.262 1.84706 120.963 2.21252C120.896 2.1793 120.796 2.1793 120.73 2.14608C120.464 1.44837 119.899 1.4816 119.301 1.4816C109.999 1.4816 100.663 1.4816 91.3601 1.44837C90.5627 1.44837 90.1972 1.74739 89.9314 2.44509C89.3002 4.07307 88.5692 5.66782 87.9048 7.29579C87.34 8.65797 87.34 8.65797 88.8018 8.65797C96.8752 8.65797 104.982 8.65797 113.055 8.65797C113.72 8.65797 114.384 8.65797 115.016 8.79087C116.344 9.08988 116.843 10.1198 116.344 11.3823C115.979 12.3126 115.514 13.2097 115.182 14.1731C115.082 14.5054 114.55 14.9041 115.115 15.3028L115.082 15.336C114.318 15.2695 114.019 15.635 114.052 16.3659L114.019 16.3992C113.952 16.2995 113.919 16.1001 113.753 16.1998C111.693 17.5952 109.367 17.5288 107.042 17.4623C106.577 17.4623 106.145 17.4623 106.012 18.0271C105.646 18.1268 105.281 18.16 104.882 18.0604C104.683 17.3294 104.085 17.4955 103.586 17.4955C99.8654 17.4955 96.1111 17.4955 92.39 17.4955C91.9581 17.4955 91.5262 17.4955 90.8617 17.4955C91.6591 15.6018 92.39 13.9074 93.1209 12.2129C94.2173 9.72114 94.2173 9.72114 91.4597 9.72114C89.566 9.72114 87.6722 9.72114 85.7784 9.72114C84.8814 9.72114 84.383 10.0202 84.7153 11.0501C84.7817 11.2494 84.7817 11.5485 84.682 11.6814C82.8215 13.5087 82.3564 16.0669 81.3929 18.3261C79.333 23.2765 75.3461 25.1038 70.3957 25.5357C68.7678 25.6686 67.1066 25.1703 65.4786 25.9677C64.8806 26.2667 64.05 25.4693 63.1529 25.4693C55.2456 25.5357 47.3383 25.5025 39.3978 25.5025C37.7366 25.5025 37.7034 25.4693 38.3678 23.941C39.3646 21.6485 40.4942 19.3893 41.2915 17.0304C42.1221 14.5386 43.5508 12.3126 44.4478 9.85403C45.3781 7.39546 46.4413 4.97011 47.5709 2.57799C48.0692 1.54804 47.8367 1.3487 46.7735 1.38192C44.3482 1.44837 41.9228 1.41515 39.5307 1.38192C38.833 1.38192 38.3014 1.54804 37.7698 2.0464C33.3178 6.33229 28.7993 10.585 24.3141 14.8376C23.9819 15.1699 23.6164 15.4689 23.0848 15.9672C22.6197 14.0735 22.1213 12.3458 21.7559 10.6182C21.5897 9.75436 21.2907 9.05666 20.5266 8.5583C20.294 8.4254 20.294 8.22606 20.3272 7.99349C21.1578 7.8606 20.9585 7.29579 20.8256 6.79743C20.4269 5.26913 19.995 3.77405 19.6627 2.24575C19.4966 1.54804 19.1644 1.3487 18.4999 1.3487C16.2407 1.38192 13.9482 1.3487 11.689 1.3487C10.5262 1.3487 8.99786 3.87372 9.42977 5.06978C9.42977 5.06978 9.49622 5.06978 9.56266 5.03656L9.59589 5.10301C8.93141 4.93689 8.89818 5.46847 8.73206 5.83394C6.97119 9.95371 5.27677 13.9074 3.61557 17.8942C3.5159 18.0936 2.65208 18.9242 3.91459 18.7581C5.84158 18.7581 7.73535 18.7248 9.66234 18.7248C9.62911 19.4225 9.3301 19.9873 8.89818 20.4857C7.03764 20.2531 5.1771 20.6518 3.31656 20.2864C3.25011 19.9541 3.54913 19.5887 3.15044 18.9906C2.75175 19.8877 2.28662 20.6186 2.18694 21.3495C2.08727 22.1469 2.55241 21.4824 2.78498 21.4492C4.71197 21.4492 6.60573 21.416 8.53272 21.416C8.4995 22.1469 8.16726 22.7782 7.6689 23.3097C6.10737 23.0772 4.54585 23.3097 2.98432 23.1768C2.22017 23.1104 1.88793 23.4426 1.62214 24.0739C1.12378 24.4726 0.592194 24.7384 0.160282 24.0739C-0.205181 23.5091 0.0938342 23.0772 0.658642 22.8446C1.09055 22.6785 1.12378 22.2466 1.2899 21.8811C4.11393 15.2695 6.93797 8.62475 9.72878 1.97996C10.061 1.2158 10.3933 0.883565 11.2571 0.916789C13.7489 0.983237 16.2739 0.950013 18.7657 0.916789C19.5963 0.916789 19.9285 1.18258 20.0947 1.97996C20.3937 3.47503 20.8588 4.97011 21.2243 6.43197C21.3572 6.93033 21.3239 7.49513 21.922 7.76093C22.221 7.89382 22.3207 8.25928 22.221 8.5583C21.7226 10.5517 22.7526 12.3458 23.1513 14.1731C23.4171 15.336 24.0483 14.306 24.3141 14.0735C26.5069 12.0468 28.6664 9.95371 30.826 7.89382C33.0188 5.80071 35.2116 3.7076 37.4043 1.61449C37.8695 1.18258 38.3346 0.883565 39.0323 0.883565C41.9228 0.916789 44.8465 0.916789 47.737 0.883565C48.6673 0.883565 48.7669 1.14936 48.4015 1.94673C46.7403 5.73426 45.1455 9.52179 43.5508 13.3426C43.285 13.9738 42.7866 14.5386 43.2185 15.3028C43.285 15.4357 43.1853 15.8011 43.0524 15.9008C41.0922 17.4291 40.9925 19.9541 39.8629 21.9143C39.8297 21.9808 39.7965 22.0805 39.7632 22.1469C38.6336 24.9709 38.6336 24.9709 41.5906 24.9709C48.7669 24.9709 55.9101 24.9709 63.0865 24.9709C63.6845 24.9709 64.3158 25.1038 64.8141 24.6055C65.0467 24.3729 65.3789 24.4394 65.6779 24.539C70.8276 26.1006 77.2399 24.1071 79.632 20.386C80.8613 18.4923 81.4925 16.3327 82.4228 14.2728C82.9876 13.0768 83.5192 11.8807 83.3199 10.5185L83.2866 10.5517C84.383 10.1198 84.9811 8.79087 86.4097 8.89054C86.6755 8.92376 87.0409 7.82737 87.2735 7.22934C88.0044 5.53492 88.7686 3.8405 89.3998 2.11285C89.7321 1.14936 90.2637 0.883565 91.2272 0.883565C100.397 0.950013 109.5 0.950013 118.604 0.950013C119.268 0.950013 119.999 1.11613 120.564 0.484877C120.83 0.185862 121.328 0.219086 121.494 0.551325C121.893 1.31548 122.69 1.38192 123.322 1.74739C125.614 3.04312 126.544 5.13623 125.581 7.66125C123.986 11.8142 122.192 15.8676 120.531 19.9541C120.132 20.9841 119.335 21.9143 119.634 23.1768C119.733 23.6088 119.235 23.8081 118.936 24.0407C118.703 24.2068 118.57 24.4394 118.67 24.7051C118.77 25.0374 119.069 24.9709 119.335 24.9709C119.634 25.0042 119.966 24.9709 120.265 24.9709C132.89 24.9709 145.515 24.9709 158.14 25.0042C159.203 25.0042 159.801 24.7716 160.2 23.6752C160.831 21.9143 161.662 20.1867 162.393 18.459C162.625 17.861 163.057 17.2962 162.725 16.5985C162.659 16.4656 162.758 16.1001 162.891 16.0005C164.652 14.6383 164.851 12.4455 165.715 10.6514C167.044 7.82737 168.207 4.93689 169.37 2.0464C169.735 1.18258 170.201 0.883565 171.131 0.883565C180.068 0.950013 189.039 0.950013 198.009 0.950013C198.673 0.950013 199.404 1.14936 199.969 0.484877C200.135 0.285534 200.534 0.25231 200.7 0.418429C201.431 1.31548 202.594 1.28225 203.491 1.78061C205.65 2.94345 206.448 5.30235 205.484 7.79415C205.086 8.82409 204.554 9.78759 204.222 10.8508C203.026 14.5386 200.301 16.1998 196.713 16.7646C195.75 16.9307 195.484 17.0969 195.949 18.1268C196.879 20.0538 197.644 22.0805 198.408 24.0739C198.673 24.7716 199.006 25.0706 199.836 25.0706C206.116 25.0374 212.428 25.0374 218.708 25.0374C219.173 25.0374 219.671 25.1038 220.07 24.7051C220.302 24.4726 220.668 24.3397 220.9 24.5723C221.698 25.3032 222.628 25.0374 223.525 25.0374C227.844 25.0706 232.13 25.0042 236.449 25.0706C237.346 25.0706 237.745 24.7716 238.077 23.9742C239.838 19.6219 241.665 15.2695 243.526 10.9836C243.958 9.95371 243.692 9.82081 242.728 9.85403C237.977 9.88726 233.226 9.85404 228.475 9.88726C228.077 9.88726 227.678 9.78759 227.346 10.1198C226.881 10.585 226.449 10.585 225.984 10.1531C225.552 9.75436 224.987 9.88726 224.455 9.88726C218.641 9.88726 212.86 9.88726 207.046 9.88726C206.415 9.88726 205.617 9.95371 206.282 8.95699C206.68 8.32573 205.95 7.66125 206.614 6.99677C208.807 4.77077 210.8 2.37864 214.023 1.58127C215.618 1.18258 217.212 0.916789 218.84 0.916789C231.366 0.950013 243.891 0.950013 256.45 0.983237C258.045 0.983237 258.011 0.983237 257.48 2.41187C257.148 3.27569 256.45 4.07307 256.882 5.13623C256.982 5.3688 256.815 5.63459 256.616 5.83394C254.589 7.62803 254.523 10.3192 253.094 12.6781C254.29 12.4455 254.689 11.7146 255.254 11.183C258.643 8.05994 261.998 4.90366 265.321 1.68094C266.085 0.916789 266.949 0.950013 267.879 0.950013C272.265 0.950013 271.268 0.650997 272.231 4.43853C272.497 5.46847 272.265 6.69776 273.328 7.42869C273.461 7.52836 273.527 7.8606 273.461 8.02672C272.763 10.0202 273.992 11.7146 274.059 13.8409C274.723 13.3093 274.856 12.7445 275.055 12.2462C276.517 8.82409 278.012 5.40202 279.441 1.94673C279.773 1.14936 280.205 0.883565 281.002 0.950013C282.099 1.01646 283.195 0.983237 284.292 0.950013C284.624 0.950013 285.023 1.04968 285.322 0.783893C285.853 0.285534 286.385 0.0861898 286.85 0.783893C287.315 1.4816 286.584 1.74739 286.219 2.14608C286.152 2.21252 286.052 2.21252 285.986 2.14608C285.621 1.64772 285.122 1.4816 284.491 1.4816C283.428 1.51482 282.365 1.54804 281.335 1.4816C280.504 1.41515 280.072 1.71416 279.773 2.51154C278.444 5.80071 277.016 9.05666 275.62 12.3458C275.155 13.4422 274.657 14.5054 274.192 15.5686C273.527 13.6083 273.128 11.6481 272.696 9.75436C272.63 9.3889 272.796 8.79087 272.065 8.82409H272.098C272.198 8.59153 272.032 8.49185 271.866 8.39218H271.899C272.265 6.69776 271.799 5.06978 271.434 3.44181C271.002 1.4816 271.002 1.58127 268.975 1.44837C267.181 1.31548 265.852 1.84706 264.557 3.14279C261.633 6.09973 258.51 8.89054 255.453 11.7478C254.324 12.811 253.161 13.8409 251.898 14.9705C251.765 14.4057 251.931 14.1399 252.064 13.8741C252.995 11.6814 253.858 9.48857 254.855 7.32901C255.221 6.49841 255.52 5.70104 255.287 4.80399C255.221 4.63787 255.221 4.50498 255.387 4.4053C256.051 4.17274 257.148 2.54476 257.081 1.88028C257.048 1.58127 256.915 1.51482 256.649 1.4816C256.284 1.4816 255.952 1.4816 255.586 1.4816C244.19 1.4816 232.794 1.4816 221.399 1.4816C218.94 1.4816 216.482 1.31548 214.089 2.11285C211.764 2.877 209.837 4.13951 208.342 6.09973C207.876 6.69776 207.677 7.22934 208.242 7.8606C207.81 8.25928 206.847 8.4254 207.013 9.02344C207.212 9.68791 208.076 9.28923 208.641 9.28923C213.824 9.32245 219.007 9.32245 224.189 9.28923C224.92 9.28923 225.685 9.48857 226.316 8.89054C226.449 8.79087 226.814 8.75764 226.914 8.85732C227.844 9.62147 228.94 9.28923 229.97 9.28923C234.489 9.32245 239.041 9.32245 243.559 9.28923C244.589 9.28923 244.755 9.5218 244.356 10.4521C242.363 15.1366 240.403 19.8212 238.443 24.539C238.11 25.3032 237.712 25.569 236.881 25.569C232.23 25.5357 227.545 25.5357 222.894 25.569C222.262 25.569 221.565 25.4361 221.033 25.9677C220.9 26.1006 220.568 26.167 220.435 26.0673C219.04 25.1703 217.511 25.6022 216.083 25.6022C210.634 25.5357 205.185 25.569 199.737 25.6022C198.806 25.6022 198.308 25.3364 197.976 24.4394C197.112 22.1137 196.115 19.788 195.152 17.4955C194.786 16.6649 194.952 16.4656 195.816 16.3992C198.242 16.1666 200.401 15.3692 202.162 13.5751C202.893 12.811 203.258 11.8807 203.591 10.9504C204.155 9.3889 205.086 7.96027 205.285 6.26585C205.518 3.94017 203.923 1.97996 201.63 1.78061C201.198 1.74739 200.866 1.84706 200.634 2.24575C200.468 2.24575 200.335 2.21252 200.169 2.21252C199.87 1.71416 199.404 1.54804 198.84 1.54804C189.603 1.54804 180.367 1.54804 171.131 1.54804C170.433 1.54804 170.101 1.81384 169.835 2.41187C168.041 6.69776 166.214 10.9836 164.386 15.2695C164.154 15.6682 164.087 16.1001 164.386 16.5653ZM105.015 9.256C102.025 9.256 99.0348 9.256 96.0446 9.256C95.4466 9.256 94.915 9.256 94.616 9.92048C93.719 12.0136 92.8551 14.1399 91.9581 16.233C91.7255 16.7978 91.8252 17.0304 92.4564 17.0304C93.4532 16.9972 94.4831 17.0969 95.4798 16.9972C98.769 16.7314 102.125 17.6284 105.347 16.4988C105.48 16.4656 105.68 16.5653 105.846 16.6317C107.939 17.3626 110.065 17.2298 112.125 16.4656C114.783 15.5021 115.115 12.8774 115.946 10.6846C116.145 10.1863 115.713 9.65469 115.115 9.5218C114.617 9.3889 114.085 9.32245 113.554 9.32245C110.73 9.256 107.872 9.256 105.015 9.256ZM1.82148 22.7782C2.31984 22.5456 2.41951 22.2466 2.15372 21.7482C1.72181 22.0472 1.65536 22.3462 1.82148 22.7782ZM253.294 12.811C253.26 12.7777 253.227 12.7445 253.227 12.7113C253.194 12.7445 253.161 12.7777 253.128 12.811C253.161 12.8442 253.194 12.8774 253.26 12.9106C253.294 12.8774 253.294 12.8442 253.294 12.811Z" fill="#F04F55"/>
<path d="M166.612 2.21251C165.848 4.00661 165.117 5.73425 164.42 7.49512C164.154 8.19283 163.589 8.02671 163.091 8.02671C155.383 8.02671 147.708 8.02671 140 8.02671C138.405 8.02671 136.844 8.1596 135.349 8.82408C134.053 9.38889 133.023 10.2195 132.491 11.5817C132.059 12.6781 131.528 13.7412 131.096 14.8376C130.498 16.2995 130.863 17.1633 132.358 17.7613C133.422 18.1932 134.518 18.1268 135.614 18.1268C143.223 18.1268 150.831 18.16 158.439 18.0936C159.735 18.0936 159.768 18.459 159.303 19.4558C158.705 20.7183 158.173 22.014 157.675 23.343C157.443 24.0074 157.11 24.3064 156.346 24.2732C146.977 24.24 137.608 24.24 128.239 24.24C127.707 24.24 127.176 24.1736 126.677 24.0739C123.853 23.4758 122.657 21.3163 123.753 18.6584C125.049 15.4357 126.577 12.3126 127.774 9.05665C129.235 5.06977 132.259 3.14278 136.179 2.31219C136.611 2.21251 137.043 2.17929 137.475 2.17929C146.944 2.17929 156.379 2.17929 165.848 2.17929C166.048 2.14607 166.247 2.17929 166.612 2.21251Z" fill="white"/>
<path d="M255.287 4.40531C255.121 4.50498 255.154 4.63788 255.187 4.804C253.327 9.08989 251.466 13.3758 249.606 17.6949C250.004 17.5952 250.27 17.4291 250.47 17.2298C255.154 12.8442 259.905 8.52508 264.457 4.03985C265.985 2.54477 267.513 1.91351 269.573 2.14608C270.205 2.21253 270.47 2.34543 270.603 2.97668C270.935 4.77078 271.401 6.56487 271.799 8.35896H271.766C271.799 8.52508 271.666 8.79087 271.999 8.79087H271.965C271.766 9.72115 272.165 10.585 272.331 11.4488C272.73 13.5751 273.195 15.6682 273.66 17.861C274.191 17.4623 274.258 17.0304 274.424 16.6317C276.351 12.1133 278.311 7.59481 280.172 3.07635C280.471 2.37865 280.803 2.14608 281.534 2.17931C282.996 2.24575 284.424 2.17931 285.886 2.17931C285.953 2.24575 286.052 2.24575 286.119 2.17931C286.185 3.30892 285.521 4.20597 285.089 5.16946C282.531 11.2494 279.906 17.2962 277.381 23.343C277.082 24.0739 276.75 24.3397 275.952 24.3065C273.892 24.24 271.833 24.24 269.739 24.3065C268.975 24.3397 268.676 24.0739 268.543 23.3097C267.713 19.0903 266.816 14.8709 265.952 10.6514C265.852 10.1863 265.753 9.75437 265.586 9.12311C263.028 11.4488 260.603 13.6416 258.177 15.8344C255.32 18.4258 252.463 21.0505 249.606 23.642C249.24 23.9742 248.941 24.2732 248.376 24.2732C246.018 24.24 243.625 24.2732 241.067 24.2732C241.831 22.4459 242.529 20.7183 243.26 18.9906C245.519 13.708 247.778 8.42541 250.004 3.10958C250.303 2.37865 250.669 2.11286 251.433 2.14608C252.961 2.21253 254.49 2.17931 256.184 2.17931C255.918 2.97668 255.619 3.70761 255.287 4.40531Z" fill="white"/>
<path d="M242.894 10.6846C242.23 12.2794 241.566 13.8409 240.901 15.4024C240.602 16.1001 240.004 15.8343 239.506 15.8343C230.269 15.8343 221.033 15.8343 211.797 15.8676C211.365 15.8676 210.833 15.6682 210.568 16.0669C210.169 16.6317 209.604 17.2962 209.803 17.9275C209.936 18.3926 210.734 18.1268 211.232 18.1268C220.202 18.1268 229.173 18.1268 238.143 18.1268C239.639 18.1268 239.672 18.16 239.04 19.5222C238.343 21.0837 238.21 23.2765 236.848 24.0407C235.585 24.7716 233.592 24.2732 231.931 24.2732C224.156 24.2732 216.349 24.2732 208.574 24.2732C207.876 24.2732 207.179 24.24 206.481 24.1071C203.557 23.5091 202.428 21.3163 203.591 18.5919C204.587 16.1998 205.617 13.8409 206.614 11.4488C206.846 10.9172 207.079 10.6182 207.744 10.6182C219.372 10.585 230.934 10.585 242.496 10.585C242.595 10.585 242.662 10.6182 242.894 10.6846Z" fill="white"/>
<path d="M20.294 8.12642C20.2608 8.35899 20.2608 8.55834 20.4933 8.69123C21.1578 11.482 21.8223 14.3061 22.52 17.3627C23.849 16.1334 25.045 15.037 26.2079 13.9406C30.1283 10.2195 34.0487 6.53167 37.9691 2.77737C38.3678 2.4119 38.7333 2.14611 39.3313 2.14611C41.5241 2.17934 43.7169 2.17934 45.9429 2.14611C46.8067 2.11289 46.7403 2.44513 46.4745 3.07638C43.584 9.85407 40.6935 16.6318 37.803 23.4427C37.5372 24.0407 37.2382 24.3397 36.5405 24.3065C35.278 24.24 33.9823 24.24 32.7198 24.3065C31.6898 24.3729 31.7563 23.9743 32.0885 23.2433C33.9823 18.8578 35.8428 14.439 37.7366 10.0534C37.8695 9.7544 38.0024 9.42216 38.1685 9.02347C37.5705 8.99025 37.3379 9.35571 37.1053 9.58828C32.2546 14.1067 27.3375 18.7249 22.4536 23.343C21.6894 24.0739 18.7989 24.6055 17.9019 24.2068C17.4367 24.0075 17.5032 23.5423 17.4367 23.1769C16.5065 18.9242 15.6426 14.6715 14.7456 10.4189C14.6459 9.98697 14.513 9.55506 14.4798 9.12314C14.4134 8.19287 13.9814 7.89386 13.018 7.96031C11.5893 8.05998 10.1275 7.99353 8.53271 7.99353C8.89818 6.99681 9.19719 6.09976 9.49621 5.20272L9.46299 5.13627C10.0942 4.50501 10.2271 3.60797 10.5926 2.84381C10.8252 2.34546 11.0245 2.07966 11.6225 2.11289C13.7489 2.14611 15.9084 2.14611 18.0348 2.11289C18.6328 2.11289 18.8654 2.27901 18.965 2.87704C19.3969 4.67113 19.8621 6.39878 20.294 8.12642Z" fill="white"/>
<path d="M208.176 7.82728C209.936 4.13942 213.159 2.3121 216.947 2.21243C226.748 1.97986 236.549 2.14598 246.516 2.14598C245.719 4.03975 244.954 5.83384 244.19 7.62794C243.925 8.25919 243.36 7.96018 242.928 7.96018C232.562 7.9934 222.196 7.9934 211.83 7.96018C210.601 7.9934 209.372 8.22597 208.176 7.82728Z" fill="white"/>
<path d="M6.63892 12.3792C6.80504 10.9838 7.50274 10.3525 8.99782 10.5519C10.0278 10.6848 11.0909 10.6183 12.1209 10.5519C13.0179 10.5186 13.3834 10.7512 12.8518 11.615C12.6857 11.914 12.6857 12.3127 12.3202 12.4789C10.4264 12.4456 8.53268 12.4124 6.63892 12.3792Z" fill="#F04F55"/>
<path d="M5.54248 14.9704C5.67538 14.3392 5.8415 13.7411 6.27341 13.276C8.2004 13.276 10.1274 13.276 12.0212 13.276C11.9215 13.9737 11.6557 14.6382 11.1573 15.1698C9.29679 15.1033 7.40302 15.0369 5.54248 14.9704Z" fill="#F04F55"/>
<path d="M10.7921 16.0669C10.7921 16.7646 10.4931 17.3626 9.99475 17.8278C8.10099 17.7613 6.24045 17.7281 4.34668 17.6616C4.44635 17.1633 4.57925 16.6649 4.97793 16.3327C5.3434 16.0004 5.80853 16.1333 6.24045 16.1333C7.76875 16.1001 9.26383 16.0669 10.7921 16.0669Z" fill="#F04F55"/>
<path d="M1.62207 24.0739C1.85464 23.4426 2.18688 23.1104 2.98425 23.1768C4.54578 23.3097 6.10731 23.0772 7.66883 23.3097C7.53594 23.7084 7.50271 24.24 6.9379 24.24C5.14381 24.1735 3.38294 24.4726 1.62207 24.0739Z" fill="white"/>
<path d="M10.792 16.0668C9.26367 16.0668 7.7686 16.1001 6.24029 16.1001C5.80838 16.1001 5.37647 16.0004 4.97778 16.2994C5.1439 15.8675 5.34325 15.4024 5.50937 14.9705C7.36991 15.0369 9.26367 15.0701 11.1242 15.1366C11.0245 15.4688 10.9249 15.7678 10.792 16.0668Z" fill="white"/>
<path d="M8.53266 21.416C6.60567 21.416 4.7119 21.4492 2.78491 21.4492C2.88458 21.0173 3.01748 20.6186 3.3165 20.2532C5.17704 20.6186 7.03758 20.2532 8.89812 20.4525C8.76523 20.7848 8.66555 21.117 8.53266 21.416Z" fill="white"/>
<path d="M4.37967 17.6616C6.27343 17.7281 8.13397 17.7613 10.0277 17.8277C9.92807 18.1268 9.79517 18.4258 9.6955 18.7248C7.76851 18.7248 5.87474 18.758 3.94775 18.758C3.94775 18.3593 4.11387 17.9939 4.37967 17.6616Z" fill="white"/>
<path d="M12.0212 13.2761C10.0942 13.2761 8.1672 13.2761 6.27344 13.2761C6.40633 12.9771 6.50601 12.678 6.6389 12.379C8.53267 12.4123 10.4264 12.4455 12.3202 12.5119C12.2205 12.7445 12.1209 13.0103 12.0212 13.2761Z" fill="white"/>
</svg>
