<svg width="30" height="29" viewBox="0 0 30 29" fill="none" xmlns="http://www.w3.org/2000/svg">
<g clip-path="url(#clip0)">
<path d="M0 14.1631C0.203674 13.3327 0.767693 12.7844 1.39438 12.2517C1.50405 12.1577 1.59805 12.001 1.62939 11.86C2.30308 9.46293 2.99244 7.08152 3.61912 4.66877C3.99514 3.19605 4.93517 2.25602 6.23555 1.58233C7.8336 0.767631 9.557 0.375951 11.3274 0.172277C13.2858 -0.0470637 15.2599 -0.062731 17.2339 0.125276C19.161 0.297615 21.0411 0.689295 22.7801 1.59799C23.7515 2.11501 24.6602 2.7417 25.0832 3.80707C25.3495 4.48076 25.5219 5.18578 25.7256 5.89081C26.2896 7.88054 26.8379 9.88595 27.4019 11.8757C27.4489 12.0324 27.5743 12.1734 27.684 12.2987C27.9816 12.612 28.295 12.9097 28.5927 13.2387C29.2193 13.9281 29.2507 15.8865 28.2636 16.5602C27.778 16.8892 27.2766 17.0459 26.7126 16.9205C24.7072 16.4505 22.7174 15.9335 20.7277 15.4791C18.8947 15.0561 17.0616 14.6644 15.1815 14.5704C14.2415 14.5234 13.3015 14.6018 12.3614 14.7428C9.05565 15.1971 5.8282 16.0588 2.58509 16.8735C1.58239 17.1242 0.752026 16.8109 0.28201 15.9805C0.156672 15.7611 0.10967 15.5105 0.0313344 15.2755C0 14.8838 0 14.5234 0 14.1631ZM11.0454 9.03992C10.356 6.87784 10.685 5.37379 12.0637 4.26142C13.3015 3.25872 15.0562 3.07071 16.3879 3.88541C18.3776 5.12311 18.785 6.89351 18.0016 8.97725C19.396 9.25926 20.7904 9.5256 22.1691 9.85461C23.5635 10.1836 24.8952 10.6693 26.2112 11.343C26.1956 11.2333 26.1799 11.1707 26.1642 11.1237C25.5689 8.97725 24.9579 6.84651 24.3782 4.7001C24.1588 3.88541 23.6731 3.27438 22.9681 2.8357C21.4641 1.88 19.8033 1.44132 18.0643 1.20631C15.8552 0.908636 13.6305 0.892969 11.4057 1.14364C9.745 1.33165 8.11561 1.70766 6.61156 2.49102C5.57753 3.03938 4.8255 3.7914 4.52782 4.98211C4.0108 7.03451 3.41545 9.05558 2.85143 11.0923C2.83576 11.1707 2.8201 11.249 2.80443 11.3587C5.40519 10.0113 8.19395 9.44726 11.0454 9.03992ZM14.3825 9.6196C12.9254 9.80761 11.3744 9.96428 9.82334 10.1993C7.84927 10.5126 5.9222 10.9826 4.08914 11.7817C3.02377 12.2517 2.02107 12.8157 1.25338 13.7401C0.924365 14.1318 0.830362 15.0561 1.0967 15.4791C1.19071 15.6358 1.34738 15.7611 1.50405 15.8552C1.78606 16.0275 2.09941 15.9492 2.41275 15.8708C5.65586 15.0248 8.89897 14.1944 12.2048 13.7244C13.1918 13.5834 14.1945 13.4581 15.1972 13.5521C16.9989 13.6931 18.7693 14.0221 20.524 14.4138C22.6078 14.8838 24.6758 15.4165 26.7596 15.9178C27.4646 16.0902 27.9816 15.6671 28.0443 14.9465C28.107 14.2414 27.8406 13.7401 27.3393 13.2857C26.3836 12.424 25.2555 11.8757 24.0648 11.437C22.1534 10.7163 20.148 10.309 18.1426 10.027C16.9206 9.87028 15.7142 9.77628 14.3825 9.6196ZM14.5392 4.35542C13.4425 4.38676 12.5964 4.84111 12.0324 5.78114C11.4527 6.7525 11.4684 7.73954 12.0324 8.72657C12.1108 8.86758 12.1891 8.91458 12.3458 8.88324C13.7871 8.67957 15.2285 8.67957 16.6542 8.88324C16.8109 8.89891 16.9049 8.85191 16.9989 8.71091C17.5473 7.73954 17.5629 6.7525 16.9989 5.78114C16.4349 4.87244 15.6045 4.40242 14.5392 4.35542Z" fill="#292929"/>
<path d="M-7.9864e-05 20.1637C0.140925 19.6937 0.469936 19.4116 0.939952 19.2863C2.19333 18.926 3.44671 18.5343 4.70008 18.1896C6.29814 17.7509 7.91186 17.8606 9.52558 18.1583C10.4969 18.3463 11.4683 18.5656 12.4397 18.7536C14.2571 19.0983 16.0588 18.9103 17.8605 18.5029C18.8789 18.2836 19.8973 18.1113 20.9156 17.9703C22.5294 17.7353 24.0961 18.0643 25.6315 18.5029C26.4932 18.7536 27.3392 19.0356 28.1852 19.3333C28.7649 19.5213 28.9999 19.866 28.9999 20.477C28.9999 20.947 28.9843 21.417 28.9999 21.8871C29.0156 22.2317 28.8589 22.4354 28.6239 22.6548C28.3262 22.9211 28.0912 23.2501 27.8405 23.5635C27.7309 23.6888 27.7465 23.7985 27.8562 23.9395C28.1382 24.2841 28.3889 24.6445 28.6552 25.0048C28.8902 25.3025 28.9999 25.6472 28.9999 26.0232C28.9999 26.3836 28.9999 26.7596 28.9999 27.1199C28.9843 27.7779 28.5612 28.3106 27.9502 28.4673C27.3392 28.624 26.7282 28.342 26.3992 27.7623C26.3052 27.5743 26.2112 27.4019 26.1172 27.2139C25.7881 27.4959 25.4905 27.7936 25.1615 28.0443C24.4564 28.5613 23.6574 28.859 22.78 28.953C22.733 28.953 22.7017 28.9843 22.6547 29C22.1377 29 21.6363 29 21.1193 29C20.806 28.9373 20.4926 28.8903 20.1793 28.8276C18.2992 28.4203 16.8892 27.3863 16.1058 25.6159C15.7768 24.8795 15.6358 24.0491 15.3851 23.2658C15.2911 22.9524 15.1658 22.6234 14.9934 22.3414C14.7271 21.9341 14.2571 21.9497 13.9751 22.3414C13.8184 22.5451 13.7087 22.7958 13.6461 23.0464C13.4894 23.5948 13.3954 24.1431 13.2387 24.6915C12.6277 26.6656 11.4056 28.0599 9.38458 28.671C8.89889 28.812 8.38188 28.8903 7.86486 29C7.34784 29 6.84649 29 6.32947 29C6.28247 28.9843 6.25113 28.953 6.20413 28.953C5.3581 28.859 4.59041 28.577 3.90105 28.0913C3.54071 27.8406 3.2117 27.5273 2.86702 27.2296C2.78868 27.3863 2.71035 27.5586 2.61634 27.7153C2.19333 28.483 1.31597 28.7336 0.626608 28.295C0.28193 28.0756 0.109591 27.7466 -0.0157471 27.3549C-0.0157471 26.7909 -0.0157471 26.2269 -0.0157471 25.6629C0.250595 25.2398 0.516938 24.8325 0.767613 24.4095C0.908618 24.1588 1.3003 23.9865 1.17496 23.6575C1.06529 23.3755 0.830282 23.1248 0.642276 22.8741C0.610941 22.8271 0.532605 22.7958 0.485603 22.7488C0.313264 22.5921 0.156592 22.4354 -0.0157471 22.2631C-7.9864e-05 21.5737 -7.9864e-05 20.8687 -7.9864e-05 20.1637ZM28.0286 21.1194C28.0286 20.947 28.0129 20.7747 28.0286 20.6024C28.0599 20.383 27.9816 20.2733 27.7465 20.195C26.9789 19.96 26.2268 19.678 25.4591 19.4586C23.9864 19.0356 22.5137 18.691 20.9783 18.926C19.9599 19.0826 18.9572 19.255 17.9545 19.4743C16.0901 19.8817 14.2257 20.0697 12.3457 19.7093C11.3743 19.5213 10.4029 19.302 9.43158 19.1296C8.33487 18.926 7.23817 18.785 6.11013 18.926C4.38674 19.1453 2.74168 19.678 1.12796 20.2577C1.04962 20.289 0.971287 20.4143 0.971287 20.5084C0.95562 20.9157 0.95562 21.323 0.971287 21.7304C0.971287 21.8244 1.01829 21.9341 1.09662 21.9811C1.56664 22.3571 1.91132 22.8271 2.14633 23.3598C2.49101 24.1275 2.78868 24.9108 3.13336 25.6785C3.58771 26.7126 4.37107 27.4176 5.43644 27.7936C6.1728 28.0599 6.94049 28.0756 7.70819 28.0129C8.64822 27.9503 9.54125 27.7153 10.3246 27.1983C11.531 26.4306 12.1577 25.2555 12.471 23.8925C12.6277 23.2188 12.7217 22.5138 13.0977 21.9184C13.8027 20.806 15.2128 20.806 15.9021 21.9341C16.0588 22.1847 16.1685 22.4511 16.2468 22.7331C16.4662 23.4695 16.6072 24.2371 16.8735 24.9578C17.3122 26.1329 18.1112 27.0102 19.2863 27.5273C20.2576 27.9503 21.276 28.0913 22.3257 28.0286C23.9551 27.9189 25.1928 27.1826 25.8821 25.6472C26.1642 25.0205 26.3678 24.3625 26.6812 23.7515C26.9318 23.2344 27.2139 22.6861 27.6055 22.2787C27.9816 21.9184 28.0912 21.5737 28.0286 21.1194ZM1.69198 24.8168C1.45697 25.1458 1.23763 25.4279 1.03396 25.7255C0.986954 25.7882 0.986954 25.8822 0.971287 25.9762C0.971287 26.3366 0.971287 26.7126 0.971287 27.0729C0.971287 27.2923 1.04962 27.4646 1.28463 27.5273C1.51964 27.5899 1.67631 27.4803 1.78598 27.2609C1.94265 26.9632 2.09933 26.6499 2.24033 26.3522C2.27167 26.2896 2.303 26.1955 2.27167 26.1485C2.08366 25.7099 1.89565 25.2868 1.69198 24.8168ZM27.3079 24.8168C27.1042 25.2868 26.9162 25.6942 26.7438 26.1172C26.7125 26.1799 26.7438 26.2896 26.7752 26.3522C26.9162 26.6656 27.0729 26.9632 27.2295 27.2609C27.3392 27.4646 27.4959 27.5743 27.7309 27.5116C27.9502 27.4489 28.0286 27.2766 28.0286 27.0572C28.0286 26.6969 28.0286 26.3209 28.0286 25.9605C28.0286 25.8509 27.9816 25.7255 27.9345 25.6472C27.7465 25.3809 27.5429 25.1302 27.3079 24.8168Z" fill="#292929"/>
<path d="M7.05014 27.0729C6.26678 27.1043 5.51475 26.9476 4.8254 26.5559C4.24571 26.2269 3.8697 25.7255 3.61902 25.1459C3.24301 24.2998 2.88266 23.4538 2.55365 22.5921C2.17764 21.6051 2.66332 20.665 3.66603 20.3674C5.53042 19.819 7.41049 19.6937 9.30622 20.0854C9.7919 20.1794 10.2933 20.2734 10.7789 20.3987C11.6563 20.6024 12.2047 21.3231 12.048 22.2161C11.907 23.0308 11.7033 23.8612 11.4056 24.6445C10.9826 25.7569 10.1209 26.4776 8.97721 26.7909C8.35052 26.9633 7.70816 27.0416 7.06581 27.1513C7.06581 27.1199 7.06581 27.0886 7.05014 27.0729ZM4.32405 24.3468C5.49909 23.1718 6.67413 22.0124 7.81783 20.8531C7.66116 20.8374 7.44182 20.8061 7.22248 20.8061C6.06311 20.7904 4.95074 21.0097 3.85403 21.3231C3.46235 21.4327 3.29001 21.8244 3.44668 22.2318C3.72869 22.9525 4.04204 23.6731 4.32405 24.3468ZM10.3873 21.2917C10.0269 21.2134 9.71357 21.1507 9.38455 21.0881C9.19655 21.0411 9.07121 21.0881 8.93021 21.2291C7.62983 22.5451 6.31378 23.8455 5.0134 25.1459C4.95074 25.2085 4.90373 25.2712 4.80973 25.3652C5.06041 25.5219 5.27975 25.6785 5.49909 25.8196C5.67143 25.9292 5.79677 25.8822 5.93777 25.7412C7.34782 24.3155 8.75787 22.9055 10.1679 21.4954C10.2463 21.4484 10.3089 21.3857 10.3873 21.2917ZM11.1236 22.0594C9.76057 23.4068 8.42886 24.7542 7.08148 26.1016C8.03718 26.0702 8.99287 25.9449 9.77623 25.2869C10.7789 24.4408 10.8103 23.1875 11.1236 22.0594Z" fill="#292929"/>
<path d="M21.9811 27.0886C21.1351 27.0729 20.3047 26.9319 19.5213 26.6029C18.3776 26.1172 17.7039 25.1928 17.3593 24.0334C17.1869 23.4694 17.0616 22.8897 16.9519 22.2944C16.7796 21.3857 17.3122 20.571 18.2209 20.3987C19.3647 20.1793 20.5084 19.96 21.6521 19.866C22.9838 19.7406 24.2998 20.0226 25.5689 20.4613C26.3366 20.7277 26.7909 21.6207 26.5089 22.4041C26.1172 23.4381 25.6785 24.4721 25.2085 25.4748C24.7385 26.4619 23.8455 26.8692 22.8271 27.0416C22.5451 27.0729 22.2631 27.0729 21.9811 27.0886ZM20.6807 25.9605C21.3544 26.0859 22.0438 26.1799 22.7331 26.0545C23.2815 25.9605 23.7985 25.7568 24.1588 25.2712C24.8482 24.3311 25.0989 23.1874 25.5689 22.1377C25.7099 21.84 25.5375 21.5424 25.2555 21.3857C23.7358 22.9054 22.2161 24.4251 20.6807 25.9605ZM19.5527 25.5688C21.0881 24.0334 22.5764 22.5607 24.0648 21.0567C23.7515 20.994 23.4381 20.947 23.1091 20.8843C22.9211 20.8373 22.7801 20.8843 22.6391 21.0253C21.4327 22.2474 20.2107 23.4538 19.0043 24.6758C18.9416 24.7385 18.8946 24.8011 18.8006 24.8951C19.0826 25.1302 19.3333 25.3495 19.5527 25.5688ZM21.4014 20.853C21.3387 20.853 21.2761 20.853 21.2291 20.853C20.3047 21.0097 19.3647 21.1507 18.4403 21.3387C18.0016 21.417 17.8136 21.7774 17.9233 22.2474C18.0016 22.5764 18.0799 22.8897 18.1583 23.2031C18.2209 23.4381 18.2836 23.6888 18.3463 23.9238C19.3647 22.8741 20.3674 21.8714 21.4014 20.853Z" fill="#292929"/>
</g>
<defs>
<clipPath id="clip0">
<rect width="29.0157" height="29" fill="white"/>
</clipPath>
</defs>
</svg>
