<svg width="31" height="29" viewBox="0 0 31 29" fill="none" xmlns="http://www.w3.org/2000/svg">
<g clip-path="url(#clip0)">
<path d="M30.5314 27.8416C30.3351 28.3324 30.0602 28.7251 29.5497 28.9018C28.9214 29.1178 28.2342 28.8626 27.8808 28.3128C27.8612 28.2735 27.8415 28.2343 27.8023 28.195C27.547 27.822 27.5274 27.5078 27.8023 27.0562C28.2735 26.2905 28.568 25.4266 28.9411 24.6019C29.0196 24.4056 29.0981 24.2289 29.2159 23.954C29.6675 24.6608 30.2958 25.1909 30.5511 25.9763C30.5314 26.6243 30.5314 27.2329 30.5314 27.8416Z" fill="#292929"/>
<path d="M27.5863 10.9363C24.8375 9.52265 21.8924 8.93362 18.8687 8.50166C19.3988 7.36287 19.4773 6.24371 19.0257 5.10491C18.7116 4.31954 18.2011 3.69124 17.4746 3.22001C15.9628 2.23829 14.0386 2.3561 12.6642 3.47526C11.4076 4.49625 10.6615 6.42042 11.6236 8.48203C8.63914 8.93362 5.69399 9.52265 2.92554 10.9363C3.10225 10.308 3.25932 9.719 3.4164 9.1496C3.86799 7.53958 4.35885 5.92956 4.75154 4.2999C5.06569 2.9844 5.8707 2.15975 7.02912 1.57072C8.58024 0.785346 10.2295 0.392658 11.9377 0.196314C13.9993 -0.0392986 16.0806 -0.058933 18.1422 0.137411C20.0075 0.31412 21.8335 0.706808 23.522 1.57072C24.6804 2.15975 25.5247 2.96476 25.78 4.2999C25.8585 4.69259 25.9959 5.08528 26.1137 5.47797C26.585 7.20579 27.0758 8.91399 27.5471 10.6418C27.5471 10.7203 27.5667 10.7793 27.5863 10.9363Z" fill="#292929"/>
<path d="M29.5104 14.4705C29.5104 15.2559 29.2551 15.6879 28.6857 15.7861C28.4894 15.8253 28.2538 15.7861 28.0378 15.7272C25.3283 15.0989 22.6187 14.4313 19.9092 13.8422C18.201 13.4692 16.4731 13.1354 14.7257 13.2729C13.1549 13.4103 11.5842 13.6263 10.0527 13.9601C7.53949 14.4902 5.02629 15.0988 2.53272 15.7468C1.60991 15.9824 1.02087 15.413 1.02087 14.5884C1.02087 13.9012 1.31539 13.4496 1.76698 13.0176C2.72907 12.1341 3.86786 11.5647 5.06556 11.1131C7.12717 10.3277 9.28695 9.8761 11.4664 9.58159C12.6248 9.42451 13.7832 9.2478 14.922 9.2478C16.1983 9.2478 17.4745 9.38524 18.7507 9.54232C20.6945 9.77793 22.6187 10.1706 24.5036 10.7793C25.8191 11.2112 27.0953 11.7217 28.2145 12.566C28.5876 12.8605 28.9213 13.1943 29.2551 13.5477C29.5104 13.7833 29.53 14.1368 29.5104 14.4705Z" fill="#292929"/>
<path d="M7.26469 18.8293C8.81581 18.8686 10.2098 19.1042 11.6039 19.4576C14.1171 20.0859 16.6303 20.027 19.1435 19.4183C20.0663 19.1827 21.0284 19.0649 21.9905 18.9079C23.5023 18.6722 24.9553 18.9471 26.4082 19.3398C27.3899 19.6147 28.3324 19.9485 29.2945 20.243C29.4908 20.3019 29.5301 20.4001 29.5301 20.5768C29.5105 20.9891 29.5301 21.3818 29.5301 21.7941C29.5301 21.8923 29.4908 22.0101 29.4123 22.069C28.784 22.5599 28.4109 23.2078 28.1164 23.9343C27.8415 24.6018 27.5667 25.2694 27.2721 25.937C26.5653 27.547 25.2694 28.3324 23.5612 28.4502C22.4617 28.5287 21.3622 28.3913 20.3216 27.9397C19.0846 27.3899 18.2207 26.4671 17.7691 25.2105C17.4942 24.4448 17.3568 23.6397 17.1015 22.874C16.9641 22.442 16.7285 21.9905 16.434 21.6763C15.6682 20.8517 14.4312 21.048 13.8029 22.0297C13.4495 22.5991 13.3121 23.2471 13.1943 23.8754C12.9194 25.1712 12.4285 26.3297 11.3879 27.2132C10.7596 27.763 10.0331 28.0771 9.24776 28.2538C8.1286 28.5091 6.98981 28.5876 5.87065 28.2342C4.73185 27.8808 3.88757 27.1739 3.37708 26.094C3.0433 25.3872 2.76841 24.6804 2.4739 23.9539C2.17938 23.2274 1.78669 22.5599 1.15839 22.069C1.07986 22.0101 1.04059 21.8923 1.04059 21.7941C1.02095 21.3622 1.04059 20.9498 1.04059 20.5179C1.04059 20.3608 1.09949 20.3019 1.23693 20.243C2.96476 19.6343 4.69258 19.0846 6.51858 18.8489C6.79346 18.8489 7.08798 18.8489 7.26469 18.8293ZM7.61811 27.4685C7.83409 27.4488 8.26604 27.4292 8.67837 27.3506C10.2098 27.0954 11.4468 26.3689 12.0162 24.8571C12.3304 24.0521 12.5267 23.1882 12.6838 22.3242C12.8409 21.4211 12.2911 20.6553 11.4075 20.4197C11.0738 20.3412 10.74 20.2823 10.4258 20.2037C8.22678 19.6736 6.06699 19.6932 3.90721 20.3608C2.82732 20.6946 2.29719 21.6567 2.70951 22.7169C3.00403 23.4827 3.29854 24.2288 3.63233 24.9749C3.90721 25.5835 4.18209 26.2118 4.73185 26.6438C5.49759 27.3114 6.44005 27.4488 7.61811 27.4685ZM23.3845 19.8503C21.8334 19.9092 20.4786 20.1252 19.1435 20.459C18.201 20.6946 17.6513 21.5192 17.8476 22.4813C17.9654 23.0703 18.1029 23.6397 18.26 24.2091C18.6134 25.4461 19.3006 26.4278 20.4983 26.958C21.6763 27.4685 22.9329 27.6059 24.2092 27.3899C25.2891 27.1936 26.153 26.6634 26.6242 25.6425C27.0954 24.6215 27.5274 23.6005 27.9201 22.5402C28.1361 21.9708 27.979 21.3818 27.547 20.9302C27.3703 20.7535 27.1543 20.5768 26.9187 20.4982C25.7014 20.1252 24.4644 19.8896 23.3845 19.8503Z" fill="#292929"/>
<path d="M18.3189 6.59712C18.3189 7.14688 18.1815 7.65738 17.9066 8.1286C17.8084 8.28568 17.7299 8.34458 17.5335 8.32495C16.5911 8.26604 15.6486 8.18751 14.7062 8.18751C14.1564 8.18751 13.6066 8.26604 13.0372 8.32495C12.8409 8.34458 12.7231 8.30531 12.6249 8.1286C12.0555 7.06835 12.0359 6.00809 12.6838 4.9871C13.2925 4.02501 14.1957 3.53415 15.3345 3.55379C17.0034 3.61269 18.3189 4.96747 18.3189 6.59712Z" fill="#292929"/>
<path d="M1.33509 23.9933C1.66888 24.7787 1.94376 25.5051 2.25791 26.212C2.45425 26.6243 2.68987 27.017 2.92548 27.39C3.00402 27.5275 3.04329 27.6256 2.94511 27.7631C2.84694 27.9398 2.7684 28.1361 2.6506 28.3129C2.31681 28.843 1.66888 29.0982 1.07985 28.9412C0.471181 28.7841 0.0195897 28.2736 -4.47115e-05 27.6453C-0.0196791 27.1544 -0.0196791 26.6439 -4.47115e-05 26.1531C0.0195897 25.9567 0.0588585 25.7211 0.176665 25.564C0.549718 25.0535 0.942406 24.543 1.33509 23.9933Z" fill="#292929"/>
<path d="M8.26602 20.9302C7.02905 22.1672 5.79209 23.4041 4.55512 24.6411C4.24097 23.8753 3.88755 23.09 3.59304 22.285C3.4556 21.9315 3.67158 21.5389 4.00536 21.4407C5.30123 21.048 6.63637 20.8124 7.99114 20.9106C8.08931 20.8909 8.18748 20.9106 8.26602 20.9302Z" fill="#292929"/>
<path d="M10.9364 21.3818C10.8382 21.4996 10.7596 21.5781 10.7007 21.637C9.22817 23.1096 7.75559 24.5822 6.28301 26.0548C6.12593 26.2118 5.98849 26.2707 5.79215 26.1529C5.55653 25.9959 5.32092 25.8388 5.06567 25.6621C5.16385 25.5443 5.22275 25.4854 5.28165 25.4265C6.65606 24.052 8.03047 22.6776 9.40488 21.3032C9.54232 21.1658 9.66012 21.1265 9.83683 21.1658C10.2099 21.2443 10.5437 21.3032 10.9364 21.3818Z" fill="#292929"/>
<path d="M7.44141 26.4476C8.85508 25.0339 10.2688 23.6202 11.6824 22.2065C11.6824 22.2262 11.7021 22.2458 11.6824 22.2851C11.4665 23.0901 11.2897 23.8951 10.9952 24.6805C10.7596 25.2891 10.2688 25.7407 9.66009 26.0156C8.95325 26.3298 8.20715 26.4672 7.44141 26.4476Z" fill="#292929"/>
<path d="M26.6044 21.48C26.899 21.6567 27.056 21.9708 26.9186 22.2654C26.4277 23.3453 26.1725 24.543 25.446 25.5443C25.0533 26.0744 24.5036 26.31 23.8949 26.3886C23.1881 26.5064 22.4616 26.4475 21.7548 26.2904C23.404 24.7 24.9944 23.09 26.6044 21.48Z" fill="#292929"/>
<path d="M25.3479 21.1266C23.7575 22.7169 22.1868 24.2681 20.5964 25.8781C20.3608 25.6817 20.1056 25.4461 19.811 25.1909C19.8896 25.0927 19.9485 25.0338 20.0074 24.9749C21.2836 23.6987 22.5795 22.4028 23.8557 21.1266C24.0128 20.9695 24.1502 20.9302 24.3662 20.9695C24.6804 21.0088 25.0141 21.0677 25.3479 21.1266Z" fill="#292929"/>
<path d="M22.5598 20.8517C21.4602 21.9512 20.3804 23.0311 19.2808 24.1306C19.1434 23.4827 18.9667 22.8348 18.8489 22.1672C18.79 21.8138 19.006 21.5193 19.3594 21.4407C20.4196 21.2247 21.4799 21.048 22.5598 20.8517Z" fill="#292929"/>
</g>
<defs>
<clipPath id="clip0">
<rect width="30.5315" height="29" fill="white"/>
</clipPath>
</defs>
</svg>
