<svg width="28" height="29" viewBox="0 0 28 29" fill="none" xmlns="http://www.w3.org/2000/svg">
<g clip-path="url(#clip0)">
<path d="M13.2516 28.5199C13.1556 28.5199 12.9635 28.5199 12.8675 28.5199C12.7715 28.5199 12.7715 28.5199 12.6754 28.5199C10.6589 28.4239 8.73836 27.9437 6.81783 27.5596C6.52975 27.4636 6.43373 27.3676 6.43373 27.0795C6.43373 22.5663 6.43373 18.149 6.43373 13.6358C6.43373 13.5398 6.43373 13.4437 6.43373 13.3477C6.3377 13.4437 6.24167 13.5398 6.24167 13.6358C6.04962 14.1159 5.85757 14.5 5.76154 14.9802C5.28141 16.7086 5.08935 18.4371 4.99333 20.2616C4.8973 22.5663 4.8973 24.8709 4.80127 27.1755C4.80127 27.2715 4.80127 27.3676 4.80127 27.5596C4.70525 27.5596 4.60922 27.5596 4.5132 27.5596C4.41717 28.3278 4.22512 28.5199 3.4569 28.5199C2.97677 28.5199 2.49664 28.5199 2.01651 28.5199C1.34432 28.5199 1.05624 28.3278 0.960215 27.6557C0.864189 27.6557 0.768162 27.6557 0.672136 27.6557C0.192003 24.9669 1.15227 12.0033 1.92048 10.1788C3.4569 10.2749 4.80127 9.79473 5.76154 8.45036C6.7218 7.10599 6.7218 5.76162 5.95359 4.22519C7.00988 3.93711 8.06618 3.55301 9.21849 3.26493C9.21849 2.7848 9.21849 2.20864 9.21849 1.7285C9.21849 1.53645 9.31452 1.44043 9.41055 1.44043C9.79465 1.3444 10.0827 1.15235 10.3708 1.05632C11.7152 0.576187 13.0596 0.48016 14.5 0.576187C15.7483 0.672213 16.9006 0.864266 18.0529 1.44043C18.245 1.53645 18.341 1.63248 18.341 1.82453C18.341 2.30466 18.341 2.88082 18.341 3.36095C19.4933 3.64903 20.5496 4.03314 21.6059 4.32122C20.8377 5.85764 20.8377 7.20201 21.798 8.54638C22.7582 9.89076 24.1026 10.2749 25.735 10.0828C26.5993 13.2517 27.3675 25.9272 26.8874 27.5596C26.7913 27.5596 26.6953 27.5596 26.5993 27.5596C26.5993 27.6557 26.5993 27.6557 26.5993 27.7517C26.5993 28.1358 26.3112 28.4239 25.9271 28.4239C25.1589 28.4239 24.3907 28.4239 23.7185 28.4239C23.3344 28.4239 23.0463 28.1358 23.0463 27.7517C23.0463 27.6557 23.0463 27.6557 23.0463 27.5596C22.9503 27.5596 22.8543 27.5596 22.7582 27.5596C22.7582 27.5596 22.7582 27.5596 22.7582 27.4636C22.7582 27.3676 22.7582 27.1755 22.7582 27.0795C22.8543 23.9106 22.7582 20.7417 22.3741 17.5729C22.1821 16.3245 21.99 15.1722 21.5099 14.0199C21.4139 13.8278 21.3178 13.6358 21.2218 13.3477C21.2218 13.3477 21.2218 13.3477 21.1258 13.3477C21.1258 13.4437 21.1258 13.5398 21.1258 13.6358C21.1258 15.5563 21.1258 17.4768 21.1258 19.3974C21.1258 21.9901 21.1258 24.5828 21.1258 27.1755C21.1258 27.2715 21.1258 27.4636 20.9337 27.4636C19.3013 27.7517 17.7649 28.1358 16.1324 28.4239C15.6523 28.5199 15.1721 28.5199 14.788 28.6159C14.692 28.6159 14.5 28.6159 14.4039 28.6159C14.4039 19.8775 14.4039 11.1391 14.4039 2.40069C15.3642 2.40069 16.2284 2.40069 17.1887 2.11261C16.9966 2.01658 16.8046 1.82453 16.7086 1.82453C16.4205 1.7285 16.2284 1.63248 15.9403 1.63248C14.788 1.53645 13.5397 1.53645 12.3874 1.53645C12.0033 1.53645 11.5231 1.7285 11.139 1.82453C10.947 1.92056 10.8509 2.01658 10.6589 2.20864C11.6192 2.49672 12.4834 2.49672 13.4437 2.49672C13.4437 2.68877 13.4437 2.7848 13.4437 2.88082C13.2516 11.3312 13.2516 19.8775 13.2516 28.5199Z" stroke="#292929" stroke-miterlimit="10"/>
<path d="M22.3742 4.60925C23.3344 4.99336 24.1987 5.47349 24.9669 6.14568C24.9669 6.2417 24.9669 6.33773 25.0629 6.43376C25.255 7.29799 25.447 8.25826 25.6391 9.1225V9.21852C24.6788 9.60263 23.2384 9.1225 22.5662 8.16223C21.702 7.10594 21.606 5.56952 22.3742 4.60925Z" stroke="#292929" stroke-miterlimit="10"/>
<path d="M5.18543 4.51331C5.95364 5.5696 5.85762 7.10602 5.08941 8.06629C4.32119 9.02655 2.8808 9.50668 1.92053 9.12258C2.11259 8.16231 2.30464 7.20205 2.59272 6.24178C2.59272 6.04973 2.97682 5.85768 3.16888 5.76165C3.84106 5.28152 4.51325 4.89741 5.18543 4.51331Z" stroke="#292929" stroke-miterlimit="10"/>
</g>
<defs>
<clipPath id="clip0">
<rect width="27.5596" height="29" fill="white"/>
</clipPath>
</defs>
</svg>
