<svg width="23" height="23" viewBox="0 0 23 23" fill="none" xmlns="http://www.w3.org/2000/svg">
<path d="M11.5 2.875C16.2437 2.875 20.125 6.75625 20.125 11.5C20.125 16.2437 16.2437 20.125 11.5 20.125C6.75625 20.125 2.875 16.2437 2.875 11.5C2.875 6.75625 6.75625 2.875 11.5 2.875ZM11.5 1.4375C5.96563 1.4375 1.4375 5.96563 1.4375 11.5C1.4375 17.0344 5.96563 21.5625 11.5 21.5625C17.0344 21.5625 21.5625 17.0344 21.5625 11.5C21.5625 5.96563 17.0344 1.4375 11.5 1.4375Z" fill="#FFFDFE"/>
<path d="M17.25 10.7812H12.2188V5.75H10.7812V10.7812H5.75V12.2188H10.7812V17.25H12.2188V12.2188H17.25V10.7812Z" fill="#FFFDFE"/>
</svg>
