<svg width="21" height="29" viewBox="0 0 21 29" fill="none" xmlns="http://www.w3.org/2000/svg">
<g clip-path="url(#clip0)">
<path d="M17.8449 0C18.3314 0.208508 18.5051 0.590773 18.4878 1.11204C18.453 1.80707 18.5051 2.48472 18.4704 3.17975C18.4009 4.34392 18.7136 5.43859 18.8874 6.568C19.2175 8.87897 19.5824 11.1899 19.8952 13.5009C20.2253 16.003 20.4165 18.5051 20.486 21.0246C20.5555 23.4224 20.5033 25.8203 20.0168 28.1833C19.8952 28.7567 19.5998 29 19.0438 29C17.8622 29 16.6807 29 15.4991 29C15.0474 29 14.7694 28.7915 14.5782 28.3919C13.2751 25.716 12.4932 22.8838 11.746 20.0342C11.2942 18.2966 10.8251 16.5764 10.3733 14.8388C10.3559 14.7519 10.3212 14.6824 10.2517 14.5956C10.1822 14.8388 10.1301 15.0647 10.0606 15.308C9.22653 18.3487 8.44463 21.3895 7.54109 24.3954C7.12408 25.7855 6.48118 27.1061 5.94253 28.4614C5.80352 28.8262 5.50814 29 5.1085 29C3.8922 29 2.6759 29 1.45961 29C0.955712 29 0.660326 28.7394 0.538696 28.2528C0.191183 26.6543 0.0695533 25.0383 0.034802 23.4224C-0.017325 20.6423 0.173807 17.8622 0.469194 15.0995C0.834083 11.5027 1.3901 7.94068 2.05038 4.39605C2.08513 4.23966 2.06776 4.08328 2.06776 3.90953C2.06776 2.98862 2.08513 2.06771 2.06776 1.12942C2.05038 0.608149 2.22414 0.243259 2.69328 0.0173757C7.71485 0 12.7712 0 17.8449 0ZM1.66811 24.0479C1.77237 24.0479 1.87662 24.0479 1.98088 24.0479C2.98867 24.0479 3.97908 24.0479 4.98687 24.0479C5.28225 24.0479 5.64714 24.1348 5.83828 23.9958C6.02941 23.8568 6.06416 23.4745 6.13366 23.1965C7.01982 19.9125 7.90598 16.6285 8.79214 13.3445C9.00065 12.5974 9.52192 12.163 10.2343 12.1456C10.9815 12.1456 11.5201 12.5626 11.7286 13.3271C11.9198 14.0569 12.1109 14.7867 12.302 15.5165C13.0492 18.2618 13.8137 21.0246 14.5609 23.7699C14.613 23.9784 14.7172 24.0479 14.9257 24.0479C16.142 24.0306 17.3583 24.0479 18.5746 24.0479C18.6615 24.0479 18.7484 24.0479 18.87 24.0306C18.87 23.7525 18.87 23.5093 18.87 23.266C18.8353 19.2175 18.3835 15.1863 17.8796 11.1726C17.8622 11.0683 17.758 10.9641 17.6537 10.9119C17.2367 10.6687 16.7849 10.4775 16.4201 10.1995C15.3254 9.34811 14.7346 8.16657 14.3524 6.86339C14.196 6.32475 14.1091 5.76872 13.9701 5.2127C13.6052 5.2127 13.2577 5.2127 12.8754 5.2127C12.8928 5.28221 12.8928 5.31696 12.8928 5.36908C12.9797 5.87298 13.0839 6.39425 13.1534 6.89814C13.2229 7.47154 12.8059 7.90593 12.2499 7.87118C11.8329 7.83643 11.5375 7.54104 11.468 7.0719C11.3637 6.51588 11.2595 5.97723 11.19 5.42121C11.1552 5.2127 11.0857 5.17795 10.8946 5.17795C10.4776 5.19533 10.0432 5.19533 9.62617 5.17795C9.45241 5.17795 9.38291 5.2127 9.34816 5.40383C9.26128 6.01198 9.15703 6.62013 9.01802 7.21091C8.93114 7.66267 8.49675 7.92331 8.06236 7.85381C7.62797 7.7843 7.33258 7.38466 7.36733 6.93289C7.38471 6.82864 7.40209 6.70701 7.41946 6.60276C7.50634 6.13361 7.57584 5.68185 7.66272 5.19533C7.34996 5.19533 7.05457 5.2127 6.75919 5.19533C6.55068 5.17795 6.49855 5.26483 6.48118 5.45596C6.3943 6.30737 6.16841 7.12403 5.80352 7.90593C5.178 9.29599 4.29184 10.4254 2.79753 10.9467C2.72803 10.9641 2.65853 11.0857 2.64115 11.1726C2.5369 11.9718 2.41527 12.7537 2.34577 13.553C2.11988 16.2463 1.894 18.9395 1.68549 21.6501C1.61599 22.432 1.66811 23.2313 1.66811 24.0479ZM16.7502 1.72019C12.3889 1.72019 8.07974 1.72019 3.7532 1.72019C3.7532 2.31096 3.7532 2.88436 3.7532 3.47513C3.87482 3.47513 3.97908 3.47513 4.08333 3.47513C5.16062 3.47513 6.23792 3.47513 7.31521 3.47513C7.94073 3.47513 7.94073 3.47513 8.04499 2.86699C8.13186 2.31096 8.54888 1.9982 9.07015 2.08508C9.53929 2.17196 9.8173 2.60635 9.73043 3.12762C9.71305 3.23188 9.69567 3.33613 9.6783 3.47513C10.0084 3.47513 10.2864 3.47513 10.5645 3.47513C10.634 3.47513 10.7208 3.47513 10.8077 3.45776C10.7903 3.30138 10.7556 3.16237 10.7556 3.04074C10.7208 2.55422 11.0162 2.15458 11.4506 2.08508C11.9371 2.01558 12.3368 2.29359 12.441 2.79748C12.4758 2.93649 12.5105 3.07549 12.5105 3.2145C12.5105 3.44038 12.6322 3.49251 12.8407 3.49251C14.057 3.49251 15.2733 3.49251 16.4896 3.49251C16.5764 3.49251 16.6633 3.47513 16.7676 3.47513C16.7502 2.86699 16.7502 2.31096 16.7502 1.72019ZM15.2733 25.7681C15.4818 26.2546 15.6903 26.7238 15.8988 27.1756C15.9162 27.2277 15.9857 27.2798 16.0378 27.2798C16.8371 27.2798 17.6364 27.2798 18.453 27.2798C18.5399 26.7585 18.6268 26.272 18.7136 25.7681C17.5321 25.7681 16.4201 25.7681 15.2733 25.7681ZM2.05038 27.2972C2.86704 27.2972 3.64894 27.2972 4.44822 27.2972C4.50035 27.2972 4.58723 27.2624 4.6046 27.2103C4.81311 26.7412 5.02162 26.272 5.23013 25.7855C4.06596 25.7855 2.95391 25.7855 1.80712 25.7855C1.87662 26.2894 1.9635 26.7759 2.05038 27.2972ZM4.77836 5.19533C4.39609 5.19533 4.04858 5.19533 3.71844 5.19533C3.66632 5.19533 3.57944 5.29958 3.56206 5.36908C3.47518 5.73397 3.42306 6.08149 3.35355 6.44638C3.21455 7.24566 3.07554 8.04494 2.93654 8.84422C4.11808 7.92331 4.55248 6.63751 4.77836 5.19533ZM17.48 8.87897C17.5147 8.84422 17.5147 8.84422 17.5147 8.82684C17.3236 7.66267 17.1325 6.4985 16.924 5.31696C16.9066 5.26483 16.8371 5.19533 16.7849 5.19533C16.4374 5.17795 16.0899 5.19533 15.725 5.19533C15.9335 6.63751 16.3853 7.90593 17.48 8.87897Z" fill="#292929"/>
</g>
<defs>
<clipPath id="clip0">
<rect width="20.4859" height="29" fill="white"/>
</clipPath>
</defs>
</svg>
