<svg width="20" height="29" viewBox="0 0 20 29" fill="none" xmlns="http://www.w3.org/2000/svg">
<g clip-path="url(#clip0)">
<path d="M0.621087 29C0.566596 28.9237 0.468512 28.8474 0.446716 28.7602C0.337734 28.2153 0.250549 27.6595 0.152466 27.0819C1.54743 27.0819 2.9097 27.0819 4.30466 27.0819C4.04311 27.6813 3.79245 28.2589 3.54179 28.8365C3.5091 28.9019 3.44371 28.9455 3.40012 29C2.47377 29 1.54743 29 0.621087 29Z" fill="#292929"/>
<path d="M16.1946 29C16.1183 28.891 16.0311 28.793 15.9767 28.6731C15.7478 28.15 15.5189 27.6269 15.2792 27.071C16.6741 27.071 18.0364 27.071 19.4314 27.071C19.3333 27.6486 19.2461 28.2045 19.1371 28.7494C19.1153 28.8365 19.0281 28.9128 18.9628 28.9891C18.0473 29 17.121 29 16.1946 29Z" fill="#292929"/>
<path d="M12.62 3.9342C13.1213 3.9342 13.6009 3.9342 14.0913 3.9342C14.1676 4.38103 14.2329 4.82785 14.331 5.26378C14.658 6.68054 15.2247 7.98832 16.2273 9.06724C16.794 9.67753 17.4697 10.1353 18.2653 10.4077C18.3525 10.4404 18.4505 10.5603 18.4614 10.6475C18.7012 12.6636 18.9518 14.6689 19.1371 16.6959C19.3224 18.6685 19.4423 20.6411 19.5621 22.6245C19.6166 23.5182 19.573 24.4118 19.573 25.36C19.475 25.36 19.366 25.36 19.257 25.36C17.8293 25.36 16.4017 25.3491 14.9849 25.3709C14.7452 25.3709 14.6362 25.3055 14.5708 25.0766C13.8733 22.5374 13.1649 19.9872 12.4674 17.4479C12.086 16.0421 11.7155 14.6253 11.3449 13.2194C11.1379 12.4348 10.5494 11.977 9.7974 11.977C9.04542 11.9879 8.47872 12.4457 8.27165 13.2085C7.33441 16.7068 6.39717 20.2161 5.44903 23.7144C5.31825 24.2048 5.16568 24.6952 5.00221 25.1747C4.98041 25.251 4.86053 25.36 4.78424 25.36C3.2476 25.3709 1.71096 25.3709 0.174322 25.36C0.141627 25.36 0.0980347 25.3491 0.0435439 25.3382C0.0435439 25.2183 0.0326458 25.1093 0.0326458 25.0003C-4.87204e-05 22.7335 0.141627 20.4776 0.348692 18.2217C0.544859 16.1183 0.77372 14.015 0.991684 11.9117C1.03528 11.4757 1.10067 11.0507 1.16605 10.6257C1.17695 10.5494 1.25324 10.4513 1.31863 10.4295C3.06233 9.84101 4.07586 8.52233 4.77334 6.9094C5.14388 6.04845 5.38364 5.1439 5.48172 4.20666C5.49262 4.11947 5.51442 4.04319 5.52532 3.9451C6.01573 3.9451 6.49525 3.9451 7.01837 3.9451C6.93118 4.47911 6.84399 5.00222 6.74591 5.52534C6.72411 5.66701 6.69142 5.79779 6.66962 5.93947C6.59334 6.42988 6.88759 6.85491 7.36711 6.9421C7.83573 7.02928 8.26075 6.72413 8.35884 6.23372C8.47872 5.57983 8.5877 4.93683 8.69668 4.28295C8.71848 4.17396 8.74027 4.06498 8.76207 3.9451C8.81656 3.9342 8.87105 3.9342 8.91464 3.9342C9.56853 3.9342 10.2115 3.9342 10.8981 3.9342C10.9962 4.47911 11.0943 5.01312 11.1815 5.54713C11.2251 5.77599 11.2577 6.01575 11.3013 6.24461C11.3994 6.73503 11.8354 7.04018 12.2931 6.95299C12.7617 6.86581 13.0559 6.44078 12.9797 5.93947C12.8816 5.37276 12.7835 4.80606 12.6854 4.23935C12.6418 4.13037 12.6309 4.04319 12.62 3.9342Z" fill="#292929"/>
<path d="M7.29081 2.20143C5.64518 2.20143 4.02136 2.20143 2.38663 2.20143C2.38663 1.61293 2.36484 1.04622 2.39753 0.468621C2.40843 0.196167 2.6155 0.0435926 2.88795 0C2.96424 0 3.05142 0 3.13861 0C7.58505 0 12.0206 0 16.4671 0C17.0665 0 17.2299 0.174371 17.2408 0.773769C17.2408 1.23149 17.2408 1.70011 17.2408 2.17963C15.5952 2.17963 13.9605 2.17963 12.304 2.17963C12.2604 1.91808 12.2168 1.65652 12.1732 1.40586C12.086 0.893649 11.661 0.555806 11.1923 0.632093C10.7019 0.70838 10.4186 1.12251 10.4731 1.64562C10.4949 1.81999 10.5276 1.99436 10.5603 2.19053C10.048 2.19053 9.54672 2.19053 9.02361 2.19053C9.04541 2.02706 9.0781 1.87448 9.0999 1.71101C9.18708 1.14431 8.89283 0.697482 8.38062 0.621195C7.912 0.555806 7.50877 0.893649 7.41068 1.43856C7.37799 1.70011 7.3344 1.93987 7.29081 2.20143Z" fill="#292929"/>
<path d="M2.21237 3.9342C2.73548 3.9342 3.23679 3.9342 3.7708 3.9342C3.50925 5.69971 2.98614 7.29084 1.52578 8.42425C1.49309 8.41335 1.46039 8.40245 1.4386 8.39155C1.70015 6.9094 1.95081 5.42725 2.21237 3.9342Z" fill="#292929"/>
<path d="M15.8567 3.92334C16.358 3.92334 16.8484 3.92334 17.3824 3.92334C17.6331 5.40549 17.8946 6.88764 18.1562 8.38069C17.1535 8.08644 15.824 5.47088 15.8567 3.92334Z" fill="#292929"/>
</g>
<defs>
<clipPath id="clip0">
<rect width="19.584" height="29" fill="white"/>
</clipPath>
</defs>
</svg>
