<svg width="17" height="17" viewBox="0 0 17 17" fill="none" xmlns="http://www.w3.org/2000/svg">
<path d="M5.50511 1.72757L6.26727 1.4839C6.98269 1.25582 7.74557 1.62486 8.05227 2.34595L8.66073 3.78245C8.92565 4.40791 8.77902 5.14386 8.29665 5.60145L6.95507 6.87503C7.03723 7.6372 7.29365 8.38732 7.7229 9.12541C8.13075 9.83955 8.67775 10.4646 9.33152 10.9635L10.943 10.4252C11.5543 10.2219 12.2194 10.4564 12.5934 11.0067L13.4668 12.2888C13.9024 12.9292 13.8245 13.8117 13.284 14.3543L12.7046 14.9359C12.128 15.5146 11.3042 15.7249 10.5428 15.4869C8.74431 14.9259 7.09107 13.2607 5.58232 10.4911C4.07144 7.71724 3.53807 5.36274 3.9829 3.4304C4.1699 2.61724 4.74861 1.96911 5.50511 1.72757Z" fill="#EE0405"/>
</svg>
