<svg width="23" height="24" viewBox="0 0 23 24" fill="none" xmlns="http://www.w3.org/2000/svg">
<path d="M8.02587 21.9414C8.62575 21.9414 9.11205 21.4551 9.11205 20.8552C9.11205 20.2553 8.62575 19.769 8.02587 19.769C7.42599 19.769 6.9397 20.2553 6.9397 20.8552C6.9397 21.4551 7.42599 21.9414 8.02587 21.9414Z" stroke="white" stroke-width="2.52273" stroke-linecap="round" stroke-linejoin="round"/>
<path d="M19.9734 21.9414C20.5733 21.9414 21.0596 21.4551 21.0596 20.8552C21.0596 20.2553 20.5733 19.769 19.9734 19.769C19.3735 19.769 18.8872 20.2553 18.8872 20.8552C18.8872 21.4551 19.3735 21.9414 19.9734 21.9414Z" stroke="white" stroke-width="2.52273" stroke-linecap="round" stroke-linejoin="round"/>
<path d="M1.61353 1.40918H5.13005L7.48613 13.4193C7.56652 13.8323 7.78671 14.2032 8.10815 14.4672C8.4296 14.7312 8.83181 14.8715 9.24439 14.8634H17.7896C18.2021 14.8715 18.6044 14.7312 18.9258 14.4672C19.2472 14.2032 19.4674 13.8323 19.5478 13.4193L20.9544 5.89392H6.00919" stroke="white" stroke-width="2.52273" stroke-linecap="round" stroke-linejoin="round"/>
</svg>
