<svg width="23" height="22" viewBox="0 0 23 22" fill="none" xmlns="http://www.w3.org/2000/svg">
<path d="M-0.000244141 1.79688C0.128906 1.47681 0.213135 1.12305 0.404053 0.842285C0.797119 0.252686 1.40356 0.00561523 2.09985 0C3.21167 0 4.31787 0 5.42407 0C9.21997 0 13.0159 0 16.8118 0C17.6821 0 18.356 0.348145 18.7378 1.14551C18.8726 1.42627 18.9006 1.75757 18.9512 2.07202C18.9792 2.26294 18.9568 2.45947 18.9568 2.6897C19.0354 2.6897 19.1084 2.6897 19.1758 2.6897C19.7429 2.6897 20.3157 2.6897 20.8828 2.6897C22.1294 2.69531 22.9941 3.56006 22.9998 4.81226C23.0054 5.73877 22.9998 6.6709 22.9998 7.59741C22.9998 10.186 22.9998 12.7803 22.9998 15.3689C22.9998 16.2336 22.6516 16.9187 21.8486 17.2893C21.5566 17.4241 21.2029 17.4858 20.8772 17.5027C20.2483 17.5364 19.6194 17.5139 18.9568 17.5139C18.9568 17.5981 18.9568 17.6768 18.9568 17.7554C18.9568 18.7661 18.9568 19.7769 18.9568 20.7876C18.9568 21.0796 18.8726 21.321 18.603 21.467C18.3672 21.5962 18.1313 21.5906 17.9067 21.4333C17.8225 21.3716 17.7439 21.2986 17.6709 21.2256C16.4861 20.0408 15.2957 18.856 14.1165 17.6655C14.0098 17.5588 13.9031 17.5083 13.7458 17.5083C11.3481 17.5139 8.95605 17.5139 6.55835 17.5083C6.40112 17.5083 6.29443 17.5532 6.18774 17.6655C5.88452 17.98 5.57568 18.2776 5.26685 18.5864C5.03662 18.8167 4.7727 18.9346 4.45825 18.7998C4.1438 18.665 4.03711 18.4011 4.04272 18.0698C4.04834 17.0759 4.04272 16.0764 4.04272 15.0825C4.04272 15.0039 4.04272 14.9197 4.04272 14.813C3.7395 14.813 3.44751 14.8186 3.15552 14.813C2.68945 14.8074 2.22339 14.8298 1.76294 14.7793C0.858887 14.6838 0.190674 14.0212 0.027832 13.1228C0.0222168 13.0891 0.00537109 13.0554 -0.00585938 13.0161C-0.000244141 9.28198 -0.000244141 5.54224 -0.000244141 1.79688ZM5.39038 16.5032C5.41284 16.52 5.4353 16.5312 5.45776 16.5481C5.5083 16.4807 5.54761 16.4077 5.60937 16.3516C6.46289 15.498 7.31641 14.6501 8.16431 13.791C8.37768 13.572 8.61352 13.4709 8.92236 13.4766C11.5559 13.4822 14.1951 13.4822 16.8286 13.4822C17.3564 13.4822 17.6147 13.2239 17.6147 12.696C17.6147 9.17529 17.6147 5.66016 17.6147 2.1394C17.6147 1.61157 17.3564 1.35327 16.8286 1.35327C11.9321 1.35327 7.03564 1.35327 2.13916 1.35327C1.61133 1.35327 1.35303 1.61157 1.35303 2.1394C1.35303 5.66016 1.35303 9.17529 1.35303 12.696C1.35303 13.2239 1.61133 13.4822 2.13916 13.4822C2.94775 13.4822 3.75635 13.4822 4.56494 13.4822C5.15454 13.4822 5.396 13.7236 5.396 14.3132C5.39038 15.0376 5.39038 15.7676 5.39038 16.5032ZM18.9568 4.04297C18.9568 4.14966 18.9568 4.2395 18.9568 4.32935C18.9568 7.10889 18.9624 9.88281 18.9456 12.6624C18.9456 12.9993 18.8838 13.3586 18.7434 13.6619C18.3728 14.4705 17.6877 14.8242 16.8062 14.8242C14.2961 14.8242 11.7917 14.8242 9.28174 14.8186C9.10205 14.8186 8.97852 14.8691 8.85498 14.9983C8.5293 15.3408 8.19238 15.6665 7.85547 16.0034C7.81055 16.0483 7.77685 16.0989 7.71509 16.1719C7.83301 16.1719 7.91724 16.1719 7.99585 16.1719C10.0229 16.1719 12.0557 16.1775 14.0828 16.1663C14.3804 16.1663 14.6106 16.2561 14.8184 16.4695C15.6775 17.3398 16.5422 18.199 17.407 19.0581C17.4631 19.1143 17.5193 19.1648 17.6035 19.2434C17.6035 18.4404 17.6035 17.6936 17.6035 16.9468C17.6035 16.4302 17.8618 16.1719 18.3728 16.1663C19.1814 16.1663 19.99 16.1663 20.7986 16.1663C21.405 16.1663 21.6465 15.9248 21.6465 15.3296C21.6465 13.1116 21.6465 10.8992 21.6465 8.68115C21.6465 7.37842 21.6465 6.07568 21.6465 4.77295C21.6465 4.33496 21.3826 4.04858 20.967 4.04297C20.3101 4.03735 19.6531 4.04297 18.9568 4.04297Z" fill="black"/>
<path d="M9.50098 6.73822C11.4719 6.73822 13.4373 6.73822 15.4082 6.73822C15.4924 6.73822 15.571 6.7326 15.6553 6.74384C16.0034 6.78314 16.2617 7.06952 16.2617 7.41205C16.2617 7.75457 16.0034 8.04095 15.6553 8.08025C15.571 8.09149 15.4924 8.08587 15.4082 8.08587C11.4551 8.08587 7.50195 8.08587 3.54883 8.08587C3.4646 8.08587 3.38599 8.09149 3.30176 8.08025C2.95923 8.04095 2.69531 7.75457 2.69531 7.41205C2.69531 7.06952 2.95361 6.78314 3.30176 6.74384C3.38599 6.7326 3.4646 6.73822 3.54883 6.73822C5.53101 6.73822 7.5188 6.73822 9.50098 6.73822Z" fill="black"/>
<path d="M8.1478 4.04302C9.66953 4.04302 11.1856 4.04302 12.7074 4.04302C12.7916 4.04302 12.8702 4.03741 12.9544 4.04864C13.3026 4.08233 13.5609 4.36871 13.5665 4.71124C13.5721 5.05938 13.3026 5.35699 12.9488 5.39068C12.8758 5.3963 12.7972 5.3963 12.7242 5.3963C9.66391 5.3963 6.59799 5.3963 3.53768 5.3963C3.4703 5.3963 3.40292 5.3963 3.33553 5.39068C2.97616 5.36261 2.70101 5.07623 2.6954 4.72247C2.68978 4.36309 2.96493 4.06548 3.33553 4.04302C3.59384 4.03741 3.84652 4.04302 4.10482 4.04302C5.45248 4.04302 6.80014 4.04302 8.1478 4.04302Z" fill="black"/>
<path d="M6.80579 9.43353C7.92322 9.43353 9.03504 9.42791 10.1525 9.43353C10.6691 9.43353 11.0004 9.88836 10.8263 10.3488C10.7252 10.6127 10.4838 10.7756 10.1749 10.7812C9.69764 10.7868 9.21473 10.7812 8.73743 10.7812C6.96863 10.7812 5.20545 10.7812 3.43665 10.7812C2.9032 10.7812 2.56629 10.332 2.74598 9.8659C2.85267 9.59075 3.09412 9.43353 3.43665 9.43353C4.5597 9.43353 5.68274 9.43353 6.80579 9.43353Z" fill="black"/>
</svg>
