<svg width="29" height="29" viewBox="0 0 29 29" fill="none" xmlns="http://www.w3.org/2000/svg">
<g clip-path="url(#clip0)">
<mask id="path-1-inside-1" fill="white">
<path fill-rule="evenodd" clip-rule="evenodd" d="M15.3888 1.81165C13.8245 1.81165 12.4803 1.35106 11.9088 0C11.5574 0.0204706 10.655 0.0562941 10.3138 0.114294C10.9672 1.97029 13.3025 3.30941 15.3888 3.30941C17.4751 3.30941 19.79 1.97029 20.4434 0.114294C20.1039 0.0562941 19.2168 0.0187647 18.8705 0C18.3008 1.35276 16.9548 1.81165 15.3888 1.81165Z"/>
</mask>
<path d="M11.9088 0L13.7508 -0.779128L13.2012 -2.07867L11.7925 -1.99662L11.9088 0ZM10.3138 0.114294L9.97865 -1.85742L7.63944 -1.45975L8.42732 0.778392L10.3138 0.114294ZM20.4434 0.114294L22.3299 0.778392L23.1171 -1.45787L20.7802 -1.85714L20.4434 0.114294ZM18.8705 0L18.9788 -1.99707L17.5736 -2.07321L17.0274 -0.776322L18.8705 0ZM15.3888 -0.188353C14.7794 -0.188353 14.3734 -0.281653 14.1287 -0.396877C13.9318 -0.489619 13.8284 -0.595709 13.7508 -0.779128L10.0668 0.779128C11.1118 3.24961 13.5345 3.81165 15.3888 3.81165V-0.188353ZM11.7925 -1.99662C11.5782 -1.98413 10.4648 -1.94005 9.97865 -1.85742L10.649 2.08601C10.6489 2.08602 10.7012 2.07844 10.8284 2.06754C10.9425 2.05776 11.0794 2.04837 11.2275 2.03947C11.3744 2.03064 11.5235 2.0228 11.6617 2.01572C11.7943 2.00892 11.9281 2.00227 12.0252 1.99662L11.7925 -1.99662ZM8.42732 0.778392C8.94739 2.25577 10.0705 3.37982 11.2701 4.11383C12.4792 4.85365 13.9421 5.30941 15.3888 5.30941V1.30941C14.7493 1.30941 14.0013 1.09562 13.3578 0.701872C12.7049 0.30233 12.3336 -0.171185 12.2004 -0.549804L8.42732 0.778392ZM15.3888 5.30941C16.8367 5.30941 18.296 4.85299 19.5015 4.11125C20.6984 3.37485 21.8117 2.2505 22.3299 0.778392L18.5568 -0.549804C18.4217 -0.165912 18.0509 0.307299 17.4054 0.704455C16.7686 1.09628 16.0273 1.30941 15.3888 1.30941V5.30941ZM20.7802 -1.85714C20.2906 -1.94079 19.2103 -1.98452 18.9788 -1.99707L18.7623 1.99707C18.9623 2.00791 19.2363 2.02012 19.5363 2.03864C19.6814 2.04759 19.8159 2.05709 19.9282 2.06694C19.984 2.07184 20.0291 2.07638 20.0637 2.08036C20.1008 2.08464 20.1128 2.0868 20.1065 2.08573L20.7802 -1.85714ZM17.0274 -0.776322C16.9507 -0.594199 16.8485 -0.489112 16.6521 -0.396715C16.4073 -0.281587 16.0004 -0.188353 15.3888 -0.188353V3.81165C17.2407 3.81165 19.6704 3.25353 20.7137 0.776322L17.0274 -0.776322Z" fill="#FFFDFE" mask="url(#path-1-inside-1)"/>
<path d="M7.87647 11.8592V10.8592H6.87647H2.78043C2.83072 7.05378 4.55859 3.57427 7.43882 1.8613C9.1227 4.44033 12.0042 6.17045 15.3257 6.17045C18.6673 6.17045 21.5708 4.41703 23.2491 1.8089C26.1886 3.49598 27.9483 7.00563 27.9989 10.8592H23.8466H22.8466V11.8592V24.4773H7.87647V11.8592Z" stroke="#FFFDFE" stroke-width="2"/>
</g>
<defs>
<clipPath id="clip0">
<rect width="29" height="29" fill="white"/>
</clipPath>
</defs>
</svg>
