<svg width="32" height="29" viewBox="0 0 32 29" fill="none" xmlns="http://www.w3.org/2000/svg">
<g clip-path="url(#clip0)">
<path d="M25.7213 3.58651C27.1161 3.69519 27.1704 3.73142 27.1704 5.07183C27.1704 5.76015 27.1704 6.44847 27.1704 7.13679C28.6195 7.40849 28.6195 7.40849 28.6195 8.8757C28.6195 10.6508 28.6195 12.4441 28.6377 14.2192C28.6377 14.2736 28.6739 14.3279 28.7101 14.5091C29.4165 14.5091 30.1592 14.5272 30.9019 14.5091C31.5902 14.4909 31.88 14.817 31.88 15.4872C31.88 19.6533 31.8619 23.8195 31.88 27.9856C31.88 28.7283 31.554 29 30.8294 29C20.9031 29 10.9587 29 1.0324 29C0.307858 29 -0.0181885 28.7283 -0.0181885 27.9856C-7.47991e-05 23.8195 -7.47991e-05 19.6533 -0.0181885 15.4872C-0.0181885 14.7989 0.27163 14.4909 0.95995 14.4909C1.6845 14.5091 2.40904 14.4909 3.24227 14.4909C3.24227 13.1505 3.24227 11.8645 3.24227 10.5784C3.24227 9.94441 3.24227 9.31043 3.24227 8.67645C3.24227 7.33604 3.2785 7.29981 4.69137 7.19113C4.69137 6.46658 4.69137 5.72392 4.69137 4.98126C4.69137 3.73142 4.74571 3.67708 6.14046 3.56839C6.14046 2.71705 6.15858 1.86571 6.14046 0.996252C6.14046 0.289819 6.46651 0 7.19105 0C13.0237 0.0181137 18.8381 0.0181137 24.6708 0C25.4496 0 25.7576 0.34416 25.7395 1.10493C25.7032 1.90194 25.7213 2.71705 25.7213 3.58651ZM1.48525 27.4785C11.1761 27.4785 20.7763 27.4785 30.3585 27.4785C30.3585 23.6021 30.3585 19.7983 30.3585 15.9944C20.7039 15.9944 11.1217 15.9944 1.48525 15.9944C1.48525 19.8345 1.48525 23.6202 1.48525 27.4785ZM4.76382 14.4909C5.21666 14.4909 5.63328 14.4366 6.04989 14.4909C7.1186 14.6359 7.93372 14.2374 8.7126 13.5309C9.87188 12.4622 11.1217 11.5384 12.3172 10.5059C12.8606 10.035 13.2954 10.035 13.8025 10.5603C14.3822 11.158 14.998 11.7196 15.5958 12.2811C16.266 11.8826 16.8456 11.5565 17.3891 11.1761C17.9144 10.8139 18.3491 10.832 18.8744 11.1761C20.251 12.0456 21.7182 12.7883 23.0224 13.7483C24.3266 14.7083 25.7213 14.4728 27.1342 14.4547C27.1342 12.4984 27.1342 10.6146 27.1342 8.76702C19.6352 8.76702 12.2085 8.76702 4.78194 8.76702C4.76382 10.6871 4.76382 12.5528 4.76382 14.4909ZM6.24914 5.08994C6.24914 5.79638 6.24914 6.4847 6.24914 7.19113C12.752 7.19113 19.2185 7.19113 25.667 7.19113C25.667 6.44847 25.667 5.77826 25.667 5.08994C19.1642 5.08994 12.7338 5.08994 6.24914 5.08994ZM7.6439 3.56839C13.2229 3.56839 18.7295 3.56839 24.2179 3.56839C24.2179 2.84385 24.2179 2.19176 24.2179 1.50344C18.6751 1.50344 13.1686 1.50344 7.6439 1.50344C7.6439 2.20987 7.6439 2.86196 7.6439 3.56839ZM15.3966 14.4547C14.6539 13.6396 13.8569 12.752 13.0237 11.8463C11.9731 12.7158 10.9949 13.5309 9.87188 14.4547C11.9187 14.4547 13.7301 14.4547 15.3966 14.4547ZM16.7551 13.3317C17.7513 14.4909 19.5446 14.8894 21.211 14.3098C20.5771 13.9294 19.9612 13.549 19.3453 13.1686C18.0774 12.4079 18.0774 12.4079 16.7551 13.3317Z" fill="#292929"/>
<path d="M16.0124 17.3892C17.4615 17.3892 18.9106 17.3892 20.3597 17.3892C22.0262 17.3892 23.1854 18.4216 23.1854 19.907C23.2036 21.3923 22.0443 22.461 20.3959 22.461C17.4072 22.461 14.4184 22.4791 11.4478 22.461C9.85378 22.461 8.71261 21.3923 8.71261 19.9432C8.6945 18.476 9.83566 17.4073 11.484 17.4073C12.9874 17.3892 14.509 17.3892 16.0124 17.3892ZM15.8856 21.0119C17.3891 21.0119 18.8925 21.0119 20.3959 21.0119C21.2654 21.0119 21.7726 20.5953 21.7363 19.907C21.682 19.1281 21.1748 18.8383 20.4503 18.8383C17.4615 18.8383 14.4909 18.8383 11.5021 18.8383C10.6327 18.8383 10.1255 19.2549 10.1617 19.9432C10.2161 20.7945 10.7776 21.0119 11.5383 21.0119C12.9874 21.0119 14.4365 21.0119 15.8856 21.0119Z" fill="#292929"/>
</g>
<defs>
<clipPath id="clip0">
<rect width="31.8982" height="29" fill="white"/>
</clipPath>
</defs>
</svg>
