<svg width="32" height="29" viewBox="0 0 32 29" fill="none" xmlns="http://www.w3.org/2000/svg">
<g clip-path="url(#clip0)">
<path d="M25.3815 3.91695C26.734 4.02234 26.7867 4.05747 26.7867 5.35729C26.7867 6.02477 26.7867 6.69224 26.7867 7.35971C28.1919 7.62319 28.1919 7.62319 28.1919 9.04597C28.1919 10.7673 28.192 12.5063 28.2095 14.2277C28.2095 14.2804 28.2446 14.3331 28.2798 14.5087C28.9648 14.5087 29.685 14.5263 30.4052 14.5087C31.0726 14.4911 31.3537 14.8073 31.3537 15.4572C31.3537 19.4972 31.3361 23.5372 31.3537 27.5772C31.3537 28.2973 31.0375 28.5608 30.3349 28.5608C20.7092 28.5608 11.066 28.5608 1.44029 28.5608C0.737681 28.5608 0.421509 28.2973 0.421509 27.5772C0.439074 23.5372 0.439074 19.4972 0.421509 15.4572C0.421509 14.7898 0.702551 14.4911 1.37002 14.4911C2.07263 14.5087 2.77523 14.4911 3.58323 14.4911C3.58323 13.1913 3.58323 11.9442 3.58323 10.6971C3.58323 10.0823 3.58323 9.46753 3.58323 8.85275C3.58323 7.55293 3.61836 7.5178 4.98844 7.41241C4.98844 6.70981 4.98844 5.98964 4.98844 5.26947C4.98844 4.05747 5.04113 4.00478 6.39365 3.89939C6.39365 3.07383 6.41121 2.24827 6.39365 1.40514C6.37608 0.684972 6.69225 0.403931 7.39486 0.403931C13.0508 0.421496 18.6892 0.421496 24.3452 0.403931C25.1005 0.403931 25.3991 0.737668 25.3815 1.4754C25.364 2.2834 25.3815 3.07383 25.3815 3.91695ZM1.87941 27.0853C11.2767 27.0853 20.5863 27.0853 29.8782 27.0853C29.8782 23.3264 29.8782 19.6377 29.8782 15.9491C20.516 15.9491 11.2241 15.9491 1.87941 15.9491C1.87941 19.6729 1.87941 23.344 1.87941 27.0853ZM5.0587 14.4911C5.49783 14.4911 5.90182 14.4385 6.30582 14.4911C7.34216 14.6317 8.13259 14.2452 8.88789 13.5602C10.0121 12.5239 11.2241 11.628 12.3833 10.6268C12.9103 10.1701 13.3319 10.1701 13.8237 10.6795C14.3858 11.2592 14.983 11.8037 15.5626 12.3482C16.2125 11.9618 16.7746 11.6456 17.3016 11.2767C17.811 10.9254 18.2325 10.943 18.7419 11.2767C20.0769 12.1199 21.4996 12.84 22.7643 13.771C24.029 14.7019 25.3815 14.4736 26.7516 14.456C26.7516 12.559 26.7516 10.7322 26.7516 8.94057C19.4797 8.94057 12.278 8.94057 5.07626 8.94057C5.0587 10.8025 5.0587 12.6117 5.0587 14.4911ZM6.49904 5.37486C6.49904 6.0599 6.49904 6.72737 6.49904 7.41241C12.8049 7.41241 19.0757 7.41241 25.3288 7.41241C25.3288 6.69224 25.3288 6.04233 25.3288 5.37486C19.023 5.37486 12.7873 5.37486 6.49904 5.37486ZM7.85155 3.89939C13.2616 3.89939 18.6014 3.89939 23.9236 3.89939C23.9236 3.19678 23.9236 2.56444 23.9236 1.89697C18.5487 1.89697 13.2089 1.89697 7.85155 1.89697C7.85155 2.582 7.85155 3.21435 7.85155 3.89939ZM15.3694 14.456C14.6492 13.6656 13.8764 12.8049 13.0684 11.9266C12.0496 12.7698 11.1011 13.5602 10.0121 14.456C11.9969 14.456 13.7534 14.456 15.3694 14.456ZM16.6868 13.367C17.6529 14.4911 19.3918 14.8776 21.0078 14.3155C20.393 13.9466 19.7958 13.5778 19.1986 13.2089C17.9691 12.4712 17.9691 12.4712 16.6868 13.367Z" stroke="#292929" stroke-miterlimit="10"/>
<path d="M15.9666 17.3016C17.3718 17.3016 18.7771 17.3016 20.1823 17.3016C21.7983 17.3016 22.9224 18.3028 22.9224 19.7432C22.94 21.1835 21.8158 22.2199 20.2174 22.2199C17.3192 22.2199 14.4209 22.2374 11.5402 22.2199C9.9945 22.2199 8.8879 21.1835 8.8879 19.7783C8.87033 18.338 9.9945 17.3016 11.5929 17.3016C13.0333 17.3016 14.5087 17.3016 15.9666 17.3016ZM15.8437 20.8147C17.3016 20.8147 18.7595 20.8147 20.2174 20.8147C21.0605 20.8147 21.5523 20.4107 21.5172 19.7432C21.4645 18.9879 20.9727 18.7068 20.2701 18.7068C17.3718 18.7068 14.4912 18.7068 11.5929 18.7068C10.7498 18.7068 10.258 19.1108 10.2931 19.7783C10.3458 20.6039 10.8903 20.8147 11.6281 20.8147C13.0333 20.8147 14.4385 20.8147 15.8437 20.8147Z" stroke="#292929" stroke-miterlimit="10"/>
</g>
<defs>
<clipPath id="clip0">
<rect width="31.8104" height="29" fill="white"/>
</clipPath>
</defs>
</svg>
