<svg width="25" height="22" viewBox="0 0 25 22" fill="none" xmlns="http://www.w3.org/2000/svg">
<path d="M24 8.42276C23.9341 8.7939 23.8862 9.17102 23.7964 9.54215C23.4969 10.7753 22.9039 11.8528 22.0414 12.7746C19.9151 15.0493 17.7948 17.324 15.6385 19.5687C14.8719 20.3649 13.9495 20.9455 12.8115 21.1012C12.1586 21.1909 11.5477 21.0114 10.9727 20.73C10.3138 20.4068 9.73281 19.9818 9.22969 19.449C7.18724 17.2821 5.15078 15.1091 3.10833 12.9482C2.01224 11.7869 1.29349 10.4341 1.06589 8.84178C1.04792 8.70411 1.02396 8.56643 1 8.42875C1 8.06959 1 7.71043 1 7.35127C1.01198 7.28542 1.02995 7.22556 1.04193 7.15971C1.24557 5.37588 1.98229 3.84346 3.31797 2.63428C4.63568 1.42511 6.19896 0.868406 7.99583 1.04799C9.37943 1.18567 10.5773 1.76631 11.6734 2.59238C11.9609 2.80788 12.2305 3.04133 12.512 3.2688C13.1469 2.69414 13.8237 2.18533 14.5784 1.80223C16.1477 1.0001 17.7888 0.724742 19.4779 1.32334C21.7719 2.13146 23.1255 3.81951 23.7664 6.11216C23.8802 6.51322 23.9221 6.93224 24 7.33929C24 7.70444 24 8.0636 24 8.42276ZM23.1076 7.81219C23.0776 6.40547 22.6224 5.08855 21.706 3.95121C20.3583 2.28709 18.1901 1.40715 15.8661 2.22723C14.7281 2.6283 13.7758 3.3107 12.9133 4.13677C12.6018 4.43607 12.3982 4.43607 12.0867 4.13677C11.5117 3.58606 10.8948 3.08922 10.194 2.70611C8.86432 1.97582 7.46875 1.67652 5.98333 2.12547C3.20417 2.95753 1.39531 6.10617 2.00625 9.02735C2.27578 10.3084 2.89271 11.3978 3.78516 12.3436C5.82161 14.5046 7.85807 16.6715 9.89453 18.8325C10.3497 19.3173 10.8888 19.6944 11.4878 19.9758C12.1346 20.2811 12.7815 20.293 13.4404 20.0057C14.0513 19.7363 14.5904 19.3652 15.0516 18.8863C15.9201 17.9764 16.7766 17.0606 17.6391 16.1447C18.9328 14.7679 20.2385 13.4151 21.5023 12.0144C22.5565 10.8411 23.0896 9.44637 23.1076 7.81219Z" fill="black" stroke="black" stroke-width="0.2"/>
<path d="M10.2547 11.0386C9.72765 11.6132 9.44015 12.2597 9.40421 13.002C9.38025 13.5407 9.39223 14.0795 9.39822 14.6182C9.40421 14.9953 9.68572 15.2767 10.0691 15.2886C10.2487 15.2946 10.4284 15.2886 10.6081 15.2946C10.8896 15.3066 11.0693 15.4802 11.0753 15.7376C11.0813 16.001 10.8956 16.1925 10.6021 16.1925C10.3026 16.1925 9.99718 16.2045 9.70968 16.1446C9.0089 16.001 8.51775 15.3844 8.49379 14.6661C8.4878 14.3608 8.49379 14.0555 8.49379 13.7203C8.1464 13.7203 7.81697 13.7203 7.49353 13.7203C6.50525 13.7203 5.9003 13.1157 5.90629 12.122C5.91228 11.5713 5.89431 11.0086 5.9602 10.4639C6.05004 9.69769 6.40942 9.04521 6.9365 8.48851C6.99041 8.42865 7.02635 8.30294 7.00838 8.22512C6.67895 6.90221 7.31385 5.60325 8.5477 5.08845C9.77556 4.57964 11.1472 5.04655 11.848 6.21981C11.9198 6.33953 11.9857 6.3515 12.1115 6.34551C12.411 6.32756 12.7105 6.32157 13.0039 6.34551C13.1417 6.3515 13.2136 6.34551 13.2855 6.21382C13.9204 5.12437 15.1722 4.6395 16.3581 5.01063C17.5261 5.37578 18.2808 6.48319 18.2029 7.72829C18.1969 7.84801 18.1909 7.97371 18.149 8.08146C18.0592 8.29696 18.125 8.44062 18.2808 8.60823C18.9157 9.29662 19.2151 10.1287 19.2211 11.0625C19.2211 11.4456 19.2271 11.8227 19.2211 12.2058C19.2092 13.1277 18.5982 13.7263 17.6698 13.7263C17.3344 13.7263 16.999 13.7263 16.6336 13.7263C16.6336 14.0076 16.6336 14.277 16.6336 14.5404C16.6276 15.5161 15.9628 16.1865 14.9865 16.1985C14.8248 16.1985 14.6571 16.2045 14.4954 16.1985C14.2378 16.1865 14.0521 16.001 14.0461 15.7615C14.0401 15.5161 14.2378 15.3126 14.5013 15.3066C14.687 15.3006 14.8787 15.3066 15.0644 15.3006C15.4058 15.2886 15.7232 15.0432 15.7232 14.714C15.7232 13.9657 15.7172 13.2175 15.6334 12.4812C15.5735 11.9424 15.268 11.4815 14.8787 11.0565C14.2618 11.7688 13.5071 12.1699 12.5667 12.1639C11.6263 12.152 10.8717 11.7629 10.2547 11.0386ZM14.5852 9.2188C14.5792 8.09942 13.6688 7.20152 12.5487 7.2075C11.4467 7.21349 10.5362 8.12336 10.5362 9.22479C10.5362 10.3442 11.4586 11.2541 12.5907 11.2481C13.6928 11.2421 14.5912 10.3262 14.5852 9.2188ZM15.5016 9.23078C16.2803 9.32057 17.0769 8.71598 17.2566 7.91984C17.4542 7.03989 16.9571 6.15396 16.1066 5.87861C15.3099 5.62121 14.3816 5.99833 14.0641 6.71665C14.9805 7.29131 15.4597 8.14132 15.5016 9.23078ZM9.61983 9.23078C9.75161 7.99766 9.97322 7.60856 11.0633 6.6927C10.7459 5.98635 9.82348 5.61522 9.02687 5.86663C8.2003 6.136 7.6852 7.00398 7.8589 7.84202C8.0326 8.70401 8.80525 9.31458 9.61983 9.23078ZM7.48155 9.15894C7.30187 9.49416 7.10421 9.78149 6.98442 10.0928C6.7089 10.835 6.80473 11.6132 6.83468 12.3794C6.84666 12.6129 7.0503 12.7925 7.28989 12.8044C7.69119 12.8224 8.09249 12.8104 8.50577 12.8104C8.61958 11.7748 9.0628 10.9128 9.85343 10.1526C8.87713 10.1945 8.12244 9.88924 7.48155 9.15894ZM16.6217 12.8164C17.0289 12.8164 17.4183 12.8284 17.8016 12.8104C18.0951 12.7984 18.2928 12.577 18.3047 12.2777C18.3167 12.0382 18.3227 11.7988 18.3047 11.5593C18.2808 11.1343 18.2748 10.7093 18.1969 10.2903C18.125 9.87727 17.9034 9.5181 17.598 9.20085C16.987 9.88924 16.2323 10.1885 15.268 10.1526C16.0706 10.9128 16.5079 11.7808 16.6217 12.8164Z" fill="black" stroke="black" stroke-width="0.2"/>
<path d="M13.01 15.7375C13.016 15.9889 12.8303 16.1805 12.5788 16.1925C12.3272 16.1984 12.1116 16.0009 12.1056 15.7495C12.0996 15.5041 12.3152 15.2886 12.5608 15.2946C12.8124 15.2946 13.004 15.4861 13.01 15.7375Z" fill="black" stroke="black" stroke-width="0.2"/>
</svg>
