<svg width="24" height="21" viewBox="0 0 24 21" fill="none" xmlns="http://www.w3.org/2000/svg">
<path d="M14.7383 4.4332C14.7383 6.17746 13.3243 7.59146 11.58 7.59146C9.83579 7.59146 8.42178 6.17746 8.42178 4.4332C8.42178 2.68894 9.83579 1.27493 11.58 1.27493C13.3243 1.27493 14.7383 2.68894 14.7383 4.4332Z" stroke="white" stroke-width="1.5545"/>
<path d="M21.2534 5.88079C21.2534 6.82559 20.4875 7.59151 19.5427 7.59151C18.5979 7.59151 17.8319 6.82559 17.8319 5.88079C17.8319 4.93599 18.5979 4.17007 19.5427 4.17007C20.4875 4.17007 21.2534 4.93599 21.2534 5.88079Z" stroke="white" stroke-width="1.5545"/>
<path d="M5.32955 5.88079C5.32955 6.82559 4.56363 7.59151 3.61883 7.59151C2.67403 7.59151 1.90811 6.82559 1.90811 5.88079C1.90811 4.93599 2.67403 4.17007 3.61883 4.17007C4.56363 4.17007 5.32955 4.93599 5.32955 5.88079Z" stroke="white" stroke-width="1.5545"/>
<path d="M3.07151 10.6841C3.19569 10.6841 3.31307 10.6834 3.42452 10.6827C4.03772 10.6789 4.47121 10.6761 4.86776 10.8033C3.23152 12.9402 3.27519 15.2536 3.32281 17.7765C3.32705 18.0012 3.33132 18.2274 3.33444 18.4554C3.25311 18.455 3.16294 18.4545 3.06288 18.4539C2.66415 18.4515 2.10848 18.4482 1.33039 18.4482C1.02317 18.4482 0.777252 18.199 0.777252 17.9V12.9598C0.777252 11.7103 1.80273 10.6841 3.07151 10.6841Z" stroke="white" stroke-width="1.5545"/>
<path d="M12.5937 10.6993L12.6259 10.702H12.6583C13.537 10.702 14.6071 11.1519 15.4681 11.9988C16.3168 12.8335 16.9108 14.0046 16.9108 15.3811C16.9108 16.2712 16.9132 16.9552 16.9151 17.4865C16.9175 18.1764 16.919 18.6088 16.9132 18.9007C16.908 19.1608 16.8972 19.2524 16.8895 19.2918C16.8893 19.293 16.8891 19.2941 16.8889 19.2952C16.8868 19.3072 16.8856 19.3138 16.8431 19.4109C16.7218 19.6789 16.6775 19.7033 16.6417 19.7232C16.6407 19.7237 16.6398 19.7243 16.6388 19.7248C16.5425 19.7785 16.3025 19.8546 15.6287 19.8941C14.8241 19.9413 13.6199 19.9319 11.7266 19.9171C10.4909 19.9074 8.96174 19.8955 7.05855 19.8955C6.61262 19.8955 6.25164 19.5297 6.25164 19.0886C6.25164 18.5748 6.24131 18.0936 6.23154 17.6382C6.20844 16.5617 6.18843 15.629 6.31513 14.7478C6.48403 13.5734 6.90835 12.603 7.96425 11.7572L7.9643 11.7573L7.97311 11.75C9.22126 10.7198 10.6871 10.5403 12.5937 10.6993Z" stroke="white" stroke-width="1.5545"/>
<path d="M19.836 17.7347C19.8807 15.1228 19.9185 12.9078 18.2943 10.8024C18.6895 10.6762 19.1223 10.6789 19.7373 10.6826C19.8482 10.6833 19.965 10.684 20.0885 10.684C21.3573 10.684 22.3828 11.7102 22.3828 12.9597V17.8529C22.3828 18.1776 22.1157 18.4481 21.7822 18.4481C21.0256 18.4481 20.4844 18.4515 20.0949 18.454C19.9954 18.4546 19.9058 18.4552 19.825 18.4556C19.8279 18.2119 19.832 17.9716 19.836 17.7347Z" stroke="white" stroke-width="1.5545"/>
</svg>
