<svg width="46" height="46" viewBox="0 0 46 46" fill="none" xmlns="http://www.w3.org/2000/svg">
<path d="M24.2192 2C14.0063 2 5.6981 10.0362 5.44996 20.0398V20.5023H0L8.25765 29.2875L16.2855 20.5023H10.1463V20.0398C10.3921 12.5879 16.598 6.62725 24.2192 6.62725C31.999 6.62725 38.306 12.8405 38.306 20.5023C38.306 28.164 31.999 34.3772 24.2192 34.3772C21.2196 34.379 18.2986 33.4356 15.8858 31.6857L12.6553 35.0789C15.9524 37.6235 20.0256 39.0046 24.2192 39C34.593 39 43 30.7201 43 20.5023C43 10.2844 34.593 2 24.2192 2ZM21.9216 9.22177V20.5023C21.9242 21.1001 22.166 21.6729 22.5948 22.0973L29.9472 29.3168C30.5974 28.904 31.2109 28.4392 31.7554 27.9L26.5169 22.7583V9.22177H21.9216Z" fill="#FFFDFE"/>
</svg>
