<svg width="23" height="23" viewBox="0 0 23 23" fill="none" xmlns="http://www.w3.org/2000/svg">
<path d="M20.6637 9.89875C20.6632 9.89829 20.6628 9.89783 20.6623 9.89736L12.4188 1.65419C12.0675 1.30266 11.6003 1.10901 11.1034 1.10901C10.6065 1.10901 10.1393 1.3025 9.78776 1.65403L1.54859 9.89305C1.54581 9.89582 1.54304 9.89875 1.54026 9.90153C0.818706 10.6272 0.81994 11.8047 1.54381 12.5286C1.87452 12.8595 2.31131 13.0511 2.77832 13.0711C2.79729 13.073 2.8164 13.0739 2.83568 13.0739H3.16423V19.1404C3.16423 20.3408 4.14096 21.3176 5.3417 21.3176H8.56682C8.89368 21.3176 9.15886 21.0525 9.15886 20.7255V15.9694C9.15886 15.4216 9.60444 14.976 10.1522 14.976H12.0545C12.6023 14.976 13.0479 15.4216 13.0479 15.9694V20.7255C13.0479 21.0525 13.3129 21.3176 13.6399 21.3176H16.865C18.0658 21.3176 19.0425 20.3408 19.0425 19.1404V13.0739H19.3472C19.8439 13.0739 20.3111 12.8804 20.6628 12.5289C21.3874 11.8038 21.3877 10.6243 20.6637 9.89875V9.89875Z" stroke="white" stroke-width="2"/>
</svg>
