<svg width="21" height="22" viewBox="0 0 21 22" fill="none" xmlns="http://www.w3.org/2000/svg">
<path d="M18.1405 10.3985H15.321C15.4745 10.1004 15.5618 9.76293 15.5618 9.40524V3.0637C15.5618 1.86295 14.5851 0.88623 13.3843 0.88623H7.04296C5.84221 0.88623 4.86549 1.86295 4.86549 3.0637V9.40524C4.86549 9.76293 4.95275 10.1004 5.10632 10.3985H2.28684C1.0861 10.3985 0.109375 11.3752 0.109375 12.5759V18.9175C0.109375 20.1181 1.0861 21.0948 2.28684 21.0948H8.62823C9.25265 21.0948 9.81618 20.8302 10.2136 20.4076C10.6111 20.8302 11.1746 21.0948 11.7991 21.0948H18.1405C19.3412 21.0948 20.3179 20.1181 20.3179 18.9175V12.5759C20.3179 11.3752 19.3412 10.3985 18.1405 10.3985ZM19.1338 12.5759V18.0083H10.8057V12.5759C10.8057 12.0281 11.2513 11.5826 11.7991 11.5826H12.7923V13.5271C12.7923 13.8541 13.0575 14.1191 13.3843 14.1191H16.5552C16.882 14.1191 17.1472 13.8541 17.1472 13.5271V11.5826H18.1405C18.6883 11.5826 19.1338 12.0281 19.1338 12.5759ZM15.9631 12.935H13.9764V11.5826H15.9631V12.935ZM11.207 2.07033V3.42278H9.22027V2.07033H11.207ZM7.04296 2.07033H8.03618V4.01483C8.03618 4.34184 8.30137 4.60688 8.62823 4.60688H11.7991C12.1259 4.60688 12.3911 4.34184 12.3911 4.01483V2.07033H13.3843C13.9321 2.07033 14.3777 2.5159 14.3777 3.0637V8.49604H6.04958V3.0637C6.04958 2.5159 6.49516 2.07033 7.04296 2.07033ZM6.08859 9.68014H14.3387C14.2191 10.0944 13.8367 10.3985 13.3843 10.3985H7.04296C6.5906 10.3985 6.20823 10.0944 6.08859 9.68014ZM6.45091 11.5826V12.935H4.46416V11.5826H6.45091ZM2.28684 11.5826H3.28007V13.5271C3.28007 13.8541 3.54525 14.1191 3.87211 14.1191H7.04296C7.36982 14.1191 7.63501 13.8541 7.63501 13.5271V11.5826H8.62823C9.17602 11.5826 9.6216 12.0281 9.6216 12.5759V18.0083H1.29347V12.5759C1.29347 12.0281 1.73905 11.5826 2.28684 11.5826ZM8.62823 19.9107H2.28684C1.83448 19.9107 1.45212 19.6066 1.33248 19.1924H9.58259C9.46295 19.6066 9.08059 19.9107 8.62823 19.9107ZM18.1405 19.9107H11.7991C11.3467 19.9107 10.9643 19.6066 10.8447 19.1924H19.0948C18.9752 19.6066 18.5928 19.9107 18.1405 19.9107Z" fill="white"/>
</svg>
