<svg width="23" height="27" viewBox="0 0 23 27" fill="none" xmlns="http://www.w3.org/2000/svg">
<path d="M11.7031 0C12.29 0.201754 12.5284 0.623604 12.5284 1.24721C12.5101 4.47528 12.5284 7.68501 12.5284 10.9131C12.5284 11.445 12.2533 11.8301 11.8131 11.9585C11.1712 12.1603 10.5109 11.6834 10.4925 11.0048C10.4742 10.4545 10.4925 9.92265 10.4925 9.37241C10.4925 6.65789 10.4925 3.94338 10.4925 1.24721C10.4925 0.623604 10.7126 0.201754 11.3179 0C11.4463 0 11.5747 0 11.7031 0Z" fill="black"/>
<path d="M23.001 14.1595C23.001 20.1388 18.9659 24.9626 13.4452 25.8796C7.30083 26.9251 1.4683 22.9267 0.239427 16.819C-0.879392 11.3716 2.11024 5.90594 7.30083 3.85171C7.90609 3.61328 8.47468 3.83337 8.71311 4.36527C8.93321 4.91551 8.67643 5.48409 8.07117 5.74087C5.59509 6.74964 3.81598 8.47372 2.78887 10.9315C0.459523 16.5072 3.94437 22.7983 9.92364 23.8621C15.0409 24.7608 19.993 21.276 20.8551 16.1771C21.6071 11.7018 19.241 7.44661 15.0225 5.75921C14.2522 5.44741 14.1238 4.69541 14.4173 4.21854C14.6924 3.77835 15.2059 3.63162 15.7195 3.83337C17.5903 4.56702 19.1677 5.70418 20.4332 7.2632C22.1206 9.37245 22.9643 11.8118 23.001 14.1595Z" fill="black"/>
</svg>
