<svg width="16" height="16" viewBox="0 0 16 16" fill="none" xmlns="http://www.w3.org/2000/svg">
<path d="M14.3689 2.66667C14.3084 2.66043 14.2473 2.66043 14.1867 2.66667H1.74227C1.66251 2.6679 1.58328 2.67986 1.50671 2.70222L7.92894 9.09778L14.3689 2.66667Z" fill="#EE0405"/>
<path d="M15.0267 3.28442L8.55557 9.72887C8.38902 9.89442 8.16373 9.98735 7.9289 9.98735C7.69407 9.98735 7.46878 9.89442 7.30223 9.72887L0.888899 3.33331C0.869183 3.40578 0.85873 3.48044 0.857788 3.55553V12.4444C0.857788 12.6802 0.951439 12.9063 1.11814 13.073C1.28484 13.2397 1.51093 13.3333 1.74668 13.3333H14.1911C14.4269 13.3333 14.653 13.2397 14.8197 13.073C14.9864 12.9063 15.08 12.6802 15.08 12.4444V3.55553C15.0765 3.46294 15.0585 3.37146 15.0267 3.28442ZM2.35557 12.4444H1.73779V11.8089L4.9689 8.60442L5.59557 9.23109L2.35557 12.4444ZM14.1822 12.4444H13.56L10.32 9.23109L10.9467 8.60442L14.1778 11.8089L14.1822 12.4444Z" fill="#EE0405"/>
</svg>
