<svg width="17" height="21" viewBox="0 0 17 21" fill="none" xmlns="http://www.w3.org/2000/svg">
<path d="M16.6601 17.2196L15.7576 5.84767C15.7013 5.11503 15.0817 4.5411 14.347 4.5411H12.5644V4.46098C12.5644 2.30703 10.8121 0.554688 8.6581 0.554688C6.50416 0.554688 4.75182 2.30703 4.75182 4.46098V4.5411H2.96928C2.23447 4.5411 1.61483 5.11499 1.55879 5.84613L0.656033 17.2211C0.586171 18.1319 0.902127 19.0386 1.52283 19.7087C2.14353 20.3788 3.02343 20.7632 3.93688 20.7632H13.3793C14.2927 20.7632 15.1726 20.3789 15.7934 19.7087C16.4141 19.0386 16.73 18.1319 16.6601 17.2196ZM5.93552 4.46098C5.93552 2.95974 7.15691 1.73839 8.6581 1.73839C10.1593 1.73839 11.3807 2.95978 11.3807 4.46098V4.5411H5.93552V4.46098ZM14.9249 18.9044C14.5216 19.3398 13.9728 19.5795 13.3793 19.5795H3.93692C3.34345 19.5795 2.79459 19.3398 2.39128 18.9044C1.98802 18.469 1.79091 17.9033 1.83622 17.3132L2.73889 5.93817C2.74805 5.8185 2.84925 5.7248 2.96928 5.7248H4.75182V7.18262C4.75182 7.50947 5.01682 7.77447 5.34367 7.77447C5.67052 7.77447 5.93552 7.50947 5.93552 7.18262V5.7248H11.3807V7.18262C11.3807 7.50947 11.6457 7.77447 11.9725 7.77447C12.2994 7.77447 12.5644 7.50947 12.5644 7.18262V5.7248H14.347C14.467 5.7248 14.5682 5.81854 14.5775 5.93975L15.4799 17.3116C15.5253 17.9033 15.3282 18.469 14.9249 18.9044Z" fill="white"/>
<path d="M11.3246 10.5913C11.0935 10.3602 10.7187 10.3602 10.4876 10.5913L7.8449 13.2341L6.82871 12.2179C6.59761 11.9867 6.22285 11.9867 5.99171 12.2179C5.76058 12.449 5.76058 12.8237 5.99171 13.0549L7.4264 14.4896C7.54197 14.6051 7.69345 14.6629 7.84486 14.6629C7.99626 14.6629 8.14779 14.6052 8.26332 14.4896L11.3245 11.4284C11.5557 11.1972 11.5557 10.8225 11.3246 10.5913Z" fill="white"/>
</svg>
