<svg width="23" height="24" viewBox="0 0 23 24" fill="none" xmlns="http://www.w3.org/2000/svg">
<path d="M8.71366 23.0289C8.51102 23.0289 8.2939 23.0289 8.09126 23.0289C8.04783 23.0144 7.98994 22.9855 7.94651 22.9855C6.91882 22.7539 6.20957 21.8999 6.1951 20.8577C6.1951 20.5538 6.26747 20.2498 6.31089 19.9313C5.97798 19.9313 5.61611 19.9458 5.25425 19.9313C4.32788 19.8879 3.64758 19.4247 3.28572 18.5707C2.92385 17.7167 3.0686 16.9206 3.691 16.2403C3.93707 15.9798 4.25551 15.7916 4.58842 15.5456C4.09629 10.8558 3.61863 6.10819 3.14097 1.34607C2.06986 1.34607 1.02769 1.34607 0 1.34607C0 0.882887 0 0.463126 0 0.0144161C1.46193 0.0144161 2.8949 0.0144161 4.37131 0.0144161C4.47263 1.04211 4.57395 2.0698 4.68975 3.09749C4.76212 3.09749 4.82002 3.11196 4.86344 3.11196C7.46885 3.11196 10.0743 3.11196 12.6797 3.11196C12.8534 3.11196 12.9113 3.01064 12.9692 2.89484C13.9245 0.998683 16.0378 -0.173753 18.0932 0.0288906C20.3512 0.246008 22.1894 1.72241 22.7974 3.85016C22.8987 4.18308 22.9421 4.53046 23.0145 4.87785C23.0145 5.19629 23.0145 5.50026 23.0145 5.8187C23 5.84764 22.9855 5.89107 22.9711 5.92002C22.8118 7.30957 22.2039 8.49648 21.1183 9.36495C20.6841 9.71234 20.4959 10.0742 20.4525 10.6242C20.3367 12.202 20.1485 13.7797 19.9893 15.3574C19.9459 15.8495 19.888 16.3417 19.8446 16.8338C19.7288 16.8338 19.6275 16.8338 19.5261 16.8338C14.8653 16.8338 10.1901 16.8338 5.52927 16.8338C5.41347 16.8338 5.2832 16.8338 5.1674 16.8483C4.70422 16.9206 4.40025 17.3115 4.44368 17.7746C4.47263 18.2523 4.86344 18.5707 5.41347 18.5707C10.1322 18.5707 14.8364 18.5707 19.5551 18.5707C19.6564 18.5707 19.7432 18.5707 19.8446 18.5707C19.8446 19.0339 19.8446 19.4682 19.8446 19.9169C19.2945 19.9169 18.7735 19.9169 18.2234 19.9169C18.2524 20.0037 18.2668 20.0616 18.2813 20.1195C18.6577 21.3498 17.9484 22.6381 16.6891 22.942C16.6168 22.9565 16.5299 22.9855 16.4575 22.9999C16.2694 22.9999 16.0667 22.9999 15.8785 22.9999C15.8351 22.9855 15.7772 22.971 15.7338 22.9565C14.8364 22.7394 14.2574 22.1894 14.0113 21.292C13.8811 20.8288 13.9534 20.3801 14.1271 19.9169C12.9113 19.9169 11.7099 19.9169 10.4796 19.9169C10.5085 20.0037 10.523 20.0761 10.5375 20.134C10.8848 21.3064 10.248 22.5223 9.09 22.8986C8.94525 22.9565 8.82946 22.9855 8.71366 23.0289ZM4.80554 4.45809C5.1674 8.13462 5.54374 11.7967 5.9056 15.4587C10.1611 15.4587 14.3877 15.4587 18.6142 15.4587C18.7879 13.7942 18.9471 12.1296 19.1208 10.4505C17.2392 10.8848 15.5601 10.5519 14.1416 9.26363C12.7231 7.98987 12.1875 6.35425 12.4336 4.45809C9.8861 4.45809 7.36753 4.45809 4.80554 4.45809ZM17.6734 9.29258C19.859 9.29258 21.6539 7.51221 21.6539 5.32656C21.6539 3.14091 19.888 1.36055 17.7023 1.36055C15.5167 1.34607 13.7218 3.12644 13.7218 5.31209C13.7074 7.49774 15.4877 9.29258 17.6734 9.29258ZM17.022 20.8288C17.0365 20.3511 16.6602 19.9458 16.1825 19.9313C15.7193 19.9024 15.2996 20.2932 15.2706 20.7709C15.2417 21.2485 15.6325 21.6683 16.1246 21.6828C16.6023 21.6828 17.0076 21.3064 17.022 20.8288ZM9.26369 20.8143C9.26369 20.3366 8.88736 19.9313 8.4097 19.9313C7.93204 19.9313 7.54123 20.3222 7.52675 20.7998C7.52675 21.2775 7.90309 21.6828 8.38075 21.6828C8.85841 21.6828 9.24922 21.292 9.26369 20.8143Z" fill="black"/>
<path d="M8.49609 12.4045C8.9448 12.4045 9.37903 12.4045 9.82774 12.4045C9.82774 12.8533 9.82774 13.273 9.82774 13.7217C9.37903 13.7217 8.9448 13.7217 8.49609 13.7217C8.49609 13.273 8.49609 12.8533 8.49609 12.4045Z" fill="black"/>
<path d="M12.9266 13.7217C12.4923 13.7217 12.0581 13.7217 11.6094 13.7217C11.6094 13.2875 11.6094 12.8533 11.6094 12.4045C12.0436 12.4045 12.4778 12.4045 12.9266 12.4045C12.9266 12.8388 12.9266 13.273 12.9266 13.7217Z" fill="black"/>
<path d="M14.707 12.4045C15.1557 12.4045 15.59 12.4045 16.0242 12.4045C16.0242 12.8533 16.0242 13.273 16.0242 13.7217C15.59 13.7217 15.1557 13.7217 14.707 13.7217C14.707 13.2875 14.707 12.8533 14.707 12.4045Z" fill="black"/>
<path d="M17.2386 7.51219C16.5439 6.81742 15.8346 6.12264 15.1543 5.44234C15.4583 5.13837 15.7622 4.83441 16.0807 4.53044C16.4281 4.87783 16.8189 5.26864 17.2097 5.67393C17.9189 4.9502 18.5992 4.25543 19.2651 3.5896C19.6124 3.93699 19.9164 4.24095 20.2059 4.54492C19.2361 5.51471 18.2374 6.51345 17.2386 7.51219Z" fill="black"/>
</svg>
