<svg width="23" height="22" viewBox="0 0 23 22" fill="none" xmlns="http://www.w3.org/2000/svg">
<path d="M21.3901 9.8166H20.2892C20.2265 9.59113 20.0916 9.39207 19.9049 9.24952C19.7182 9.10697 19.4898 9.02867 19.2543 9.02646H18.0791V6.17213C18.0804 6.11874 18.0674 6.06595 18.0414 6.01919C18.0155 5.97243 17.9774 5.93338 17.9312 5.90603L9.641 1.15019C9.59428 1.12322 9.5412 1.10901 9.48716 1.10901C9.43311 1.10901 9.38003 1.12322 9.33331 1.15019L1.04052 5.90603C0.993601 5.93305 0.954677 5.97187 0.927675 6.01859C0.900673 6.0653 0.886547 6.11827 0.88672 6.17213V15.6839C0.886722 15.7378 0.901017 15.7908 0.928171 15.8375C0.955324 15.8842 0.994378 15.923 1.04141 15.95L9.33503 20.7058C9.38206 20.7328 9.43541 20.747 9.48972 20.747C9.54543 20.747 9.60021 20.7328 9.64883 20.7058L14.013 18.2056V20.013C14.0126 20.1851 14.0465 20.3555 14.1128 20.5145C14.1792 20.6735 14.2766 20.8178 14.3994 20.9391C14.5223 21.0604 14.6682 21.1563 14.8286 21.2213C14.9891 21.2862 15.1609 21.3189 15.3341 21.3175H21.3901C21.5638 21.3191 21.7361 21.2866 21.8971 21.2218C22.0581 21.157 22.2046 21.0612 22.3282 20.94C22.4517 20.8187 22.55 20.6744 22.6172 20.5153C22.6844 20.3562 22.7192 20.1855 22.7197 20.013V11.1415C22.7195 10.7909 22.5795 10.4547 22.3303 10.2064C22.0811 9.9581 21.7431 9.81795 21.3901 9.8166ZM19.2653 9.64102C19.3844 9.64102 19.4986 9.68801 19.5828 9.77166C19.6671 9.8553 19.7144 9.96875 19.7144 10.087V10.1168C19.7144 10.2351 19.6671 10.3486 19.5828 10.4322C19.4986 10.5159 19.3844 10.5628 19.2653 10.5628H17.4675C17.3484 10.5628 17.2341 10.5159 17.1499 10.4322C17.0657 10.3486 17.0184 10.2351 17.0184 10.1168V10.087C17.0184 9.96875 17.0657 9.8553 17.1499 9.77166C17.2341 9.68801 17.3484 9.64102 17.4675 9.64102H19.2653ZM9.48972 1.77111L12.9359 3.74724L5.26154 8.14796L1.81542 6.17183L9.48972 1.77111ZM9.19564 19.9075L1.50547 15.5064V6.70368L9.19564 11.1047V19.9075ZM9.48972 10.5725L5.88029 8.50273L13.5546 4.10206L17.1642 6.17183L9.48972 10.5725ZM14.013 11.1415V17.496L9.81439 19.9075V11.1047L17.4604 6.70368V9.02646H17.4699C17.2344 9.02866 17.0061 9.10696 16.8193 9.24951C16.6326 9.39207 16.4977 9.59113 16.435 9.8166H15.3341C14.982 9.8183 14.6451 9.95884 14.3973 10.2073C14.1496 10.4558 14.0113 10.7918 14.013 11.1415ZM22.101 20.013C22.1006 20.1048 22.0818 20.1957 22.0457 20.2803C22.0096 20.3648 21.957 20.4414 21.8908 20.5056C21.8247 20.5698 21.7464 20.6203 21.6604 20.6542C21.5745 20.6881 21.4826 20.7046 21.3901 20.7029H15.3341C15.2421 20.7045 15.1507 20.6877 15.0653 20.6537C14.9799 20.6197 14.9022 20.569 14.8368 20.5048C14.7713 20.4405 14.7195 20.3639 14.6843 20.2794C14.6491 20.195 14.6312 20.1044 14.6318 20.013V11.1415C14.6309 11.049 14.6483 10.9573 14.6831 10.8715C14.7179 10.7857 14.7694 10.7076 14.8346 10.6417C14.8999 10.5757 14.9776 10.5231 15.0633 10.487C15.149 10.4509 15.241 10.4319 15.3341 10.4312H16.4471C16.5134 10.6487 16.649 10.8389 16.8334 10.9735C17.0178 11.108 17.2411 11.1796 17.4699 11.1774H19.2543C19.4831 11.1796 19.7064 11.108 19.8909 10.9735C20.0753 10.8389 20.2108 10.6487 20.2771 10.4312H21.3901C21.579 10.4323 21.7598 10.5077 21.893 10.6408C22.0262 10.7739 22.1009 10.9539 22.101 11.1415V20.013Z" fill="white" stroke="white" stroke-width="0.466351"/>
<path d="M15.6899 14.25H16.0138C16.0958 14.25 16.1745 14.2177 16.2325 14.16C16.2905 14.1024 16.3231 14.0242 16.3231 13.9428C16.3231 13.8613 16.2905 13.7831 16.2325 13.7255C16.1745 13.6679 16.0958 13.6355 16.0138 13.6355H16.0016V12.8014H16.8549C16.8743 12.8632 16.9136 12.917 16.9667 12.9545C17.0198 12.9919 17.0839 13.0111 17.149 13.0089C17.2312 13.0092 17.31 12.977 17.3684 12.9195C17.4267 12.8621 17.4596 12.784 17.4601 12.7024V12.4956C17.4594 12.4136 17.4261 12.3352 17.3676 12.2774C17.309 12.2196 17.2299 12.1871 17.1473 12.1869H15.6899C15.6494 12.1871 15.6092 12.1953 15.5718 12.2109C15.5344 12.2265 15.5005 12.2493 15.4719 12.278C15.4434 12.3067 15.4208 12.3407 15.4056 12.378C15.3903 12.4153 15.3825 12.4553 15.3828 12.4956V13.9431C15.3826 13.9833 15.3903 14.0232 15.4057 14.0604C15.421 14.0976 15.4436 14.1315 15.4721 14.16C15.5007 14.1885 15.5346 14.2112 15.572 14.2266C15.6094 14.2421 15.6495 14.25 15.6899 14.25Z" fill="white" stroke="white" stroke-width="0.466351"/>
<path d="M15.6922 17.0595H17.1507C17.2327 17.0595 17.3114 17.0271 17.3694 16.9695C17.4274 16.9119 17.46 16.8337 17.46 16.7522V15.3036C17.46 15.2221 17.4274 15.144 17.3694 15.0863C17.3114 15.0287 17.2327 14.9963 17.1507 14.9963H15.6922C15.6101 14.9963 15.5314 15.0287 15.4734 15.0863C15.4154 15.144 15.3828 15.2221 15.3828 15.3036V16.7522C15.3828 16.8337 15.4154 16.9119 15.4734 16.9695C15.5314 17.0271 15.6101 17.0595 15.6922 17.0595ZM16.0016 15.6109H16.8413V16.4449H16.0016V15.6109Z" fill="white" stroke="white" stroke-width="0.466351"/>
<path d="M16.0138 19.2544H16.0016V18.4203H16.8382C16.8398 18.5011 16.8732 18.5781 16.9313 18.6347C16.9893 18.6913 17.0674 18.7231 17.1488 18.7232C17.2302 18.7233 17.3084 18.6917 17.3665 18.6352C17.4247 18.5787 17.4583 18.5018 17.4601 18.421V18.1249C17.4598 18.0418 17.427 17.9621 17.3686 17.9026C17.3103 17.843 17.2309 17.8083 17.1473 17.8058H15.69C15.6069 17.8086 15.5283 17.8435 15.4709 17.9031C15.4135 17.9628 15.3819 18.0424 15.3828 18.1249V19.5724C15.3828 19.612 15.3908 19.6513 15.4063 19.6879C15.4218 19.7244 15.4446 19.7575 15.4732 19.7852C15.5019 19.8128 15.5358 19.8345 15.573 19.8489C15.6103 19.8633 15.65 19.8701 15.69 19.8689H16.0138C16.0959 19.8689 16.1746 19.8366 16.2326 19.7789C16.2906 19.7213 16.3232 19.6431 16.3232 19.5617C16.3232 19.4802 16.2906 19.402 16.2326 19.3444C16.1746 19.2867 16.0959 19.2544 16.0138 19.2544Z" fill="white" stroke="white" stroke-width="0.466351"/>
<path d="M17.8582 12.5641L16.9522 13.464L16.6766 13.1902C16.6479 13.1617 16.6138 13.1391 16.5762 13.1236C16.5387 13.1082 16.4985 13.1002 16.4578 13.1002C16.4172 13.1002 16.377 13.1082 16.3394 13.1236C16.3019 13.1391 16.2678 13.1617 16.2391 13.1902C16.2103 13.2188 16.1875 13.2526 16.172 13.2899C16.1564 13.3272 16.1484 13.3672 16.1484 13.4075C16.1484 13.4479 16.1564 13.4878 16.172 13.5251C16.1875 13.5624 16.2103 13.5963 16.2391 13.6248L16.7335 14.1158C16.7622 14.1444 16.7963 14.167 16.8339 14.1825C16.8714 14.1979 16.9116 14.2058 16.9523 14.2058C16.9929 14.2058 17.0331 14.1979 17.0707 14.1825C17.1082 14.167 17.1423 14.1444 17.171 14.1158L18.2959 12.9986C18.3539 12.941 18.3865 12.8628 18.3865 12.7813C18.3865 12.6998 18.3539 12.6216 18.2959 12.564C18.2379 12.5064 18.1592 12.474 18.0771 12.474C17.9951 12.474 17.9164 12.5064 17.8584 12.564L17.8582 12.5641Z" fill="white" stroke="white" stroke-width="0.466351"/>
<path d="M17.8582 18.2378L16.9522 19.1377L16.6766 18.8639C16.6479 18.8354 16.6138 18.8128 16.5762 18.7973C16.5387 18.7819 16.4985 18.7739 16.4578 18.7739C16.4172 18.7739 16.377 18.7819 16.3394 18.7973C16.3019 18.8128 16.2678 18.8354 16.2391 18.8639C16.2103 18.8925 16.1875 18.9263 16.172 18.9636C16.1564 19.0009 16.1484 19.0409 16.1484 19.0812C16.1484 19.1216 16.1564 19.1615 16.172 19.1988C16.1875 19.2361 16.2103 19.27 16.2391 19.2985L16.7335 19.7895C16.7622 19.8181 16.7963 19.8407 16.8339 19.8562C16.8714 19.8716 16.9116 19.8796 16.9523 19.8796C16.9929 19.8796 17.0331 19.8716 17.0707 19.8562C17.1082 19.8407 17.1423 19.8181 17.171 19.7895L18.2959 18.6723C18.3539 18.6147 18.3865 18.5365 18.3865 18.455C18.3865 18.3735 18.3539 18.2953 18.2959 18.2377C18.2379 18.1801 18.1592 18.1477 18.0771 18.1477C17.9951 18.1477 17.9164 18.1801 17.8584 18.2377L17.8582 18.2378Z" fill="white" stroke="white" stroke-width="0.466351"/>
<path d="M21.0338 12.9333H19.0906C19.0086 12.9333 18.9299 12.9657 18.8719 13.0233C18.8138 13.081 18.7812 13.1591 18.7812 13.2406C18.7812 13.3221 18.8138 13.4003 18.8719 13.4579C18.9299 13.5155 19.0086 13.5479 19.0906 13.5479H21.0338C21.1158 13.5479 21.1945 13.5155 21.2525 13.4579C21.3105 13.4003 21.3431 13.3221 21.3431 13.2406C21.3431 13.1591 21.3105 13.081 21.2525 13.0233C21.1945 12.9657 21.1158 12.9333 21.0338 12.9333Z" fill="white" stroke="white" stroke-width="0.466351"/>
<path d="M21.0338 15.7427H19.0906C19.0086 15.7427 18.9299 15.775 18.8719 15.8327C18.8138 15.8903 18.7812 15.9685 18.7812 16.05C18.7812 16.1314 18.8138 16.2096 18.8719 16.2672C18.9299 16.3249 19.0086 16.3572 19.0906 16.3572H21.0338C21.1158 16.3572 21.1945 16.3249 21.2525 16.2672C21.3105 16.2096 21.3431 16.1314 21.3431 16.05C21.3431 15.9685 21.3105 15.8903 21.2525 15.8327C21.1945 15.775 21.1158 15.7427 21.0338 15.7427Z" fill="white" stroke="white" stroke-width="0.466351"/>
<path d="M21.0338 18.552H19.0906C19.0086 18.552 18.9299 18.5844 18.8719 18.642C18.8138 18.6996 18.7812 18.7778 18.7812 18.8593C18.7812 18.9408 18.8138 19.0189 18.8719 19.0766C18.9299 19.1342 19.0086 19.1666 19.0906 19.1666H21.0338C21.1158 19.1666 21.1945 19.1342 21.2525 19.0766C21.3105 19.0189 21.3431 18.9408 21.3431 18.8593C21.3431 18.7778 21.3105 18.6996 21.2525 18.642C21.1945 18.5844 21.1158 18.552 21.0338 18.552Z" fill="white" stroke="white" stroke-width="0.466351"/>
</svg>
