<svg width="23" height="25" viewBox="0 0 23 25" fill="none" xmlns="http://www.w3.org/2000/svg">
<path d="M0.69765 24.673C0.130288 24.4693 -0.0297378 24.0474 -0.000642321 23.4801C0.0430009 22.098 0.24667 20.7596 0.784936 19.494C1.64325 17.4427 3.14167 16.0025 5.14926 15.086C6.60404 14.4313 8.13155 14.1258 9.71726 13.9804C11.2011 13.8494 12.6705 13.8785 14.1398 14.0677C16.031 14.315 17.8204 14.8387 19.4061 15.9589C21.21 17.2391 22.2865 18.9848 22.7229 21.1379C22.883 21.9089 22.9121 22.6945 22.9994 23.4801C23.0575 24.0474 22.8684 24.4693 22.3011 24.673C15.0999 24.673 7.89879 24.673 0.69765 24.673ZM1.80328 22.8545C8.27703 22.8545 14.7071 22.8545 21.1372 22.8545C21.1082 22.6363 21.0936 22.4181 21.0645 22.2144C20.9045 21.0651 20.5553 19.974 19.9007 19.0139C18.9696 17.6609 17.6603 16.8317 16.1328 16.3371C15.0417 15.988 13.9216 15.8134 12.7723 15.7406C10.7211 15.6243 8.69891 15.7261 6.73497 16.3662C5.62934 16.7299 4.62554 17.2973 3.78177 18.1265C2.938 18.9702 2.38519 20.0031 2.09423 21.167C1.97785 21.7198 1.90511 22.2871 1.80328 22.8545Z" fill="black"/>
<path d="M17.4713 6.29912C17.3985 8.26307 16.613 10.0379 14.94 11.3908C13.1361 12.8456 10.4156 12.9911 8.49532 11.6818C6.18223 10.1106 5.26572 7.85573 5.61487 5.12075C5.84763 3.22955 6.82233 1.76022 8.48077 0.785524C9.67369 0.0872313 10.9684 -0.130985 12.3359 0.0581358C14.0526 0.2909 15.4201 1.10557 16.4093 2.53125C17.1512 3.62234 17.4713 4.84435 17.4713 6.29912ZM7.31695 6.02272C7.31695 7.46294 7.84067 8.71405 8.78628 9.64511C10.212 11.0562 12.4378 11.1581 13.9507 9.86332C15.3473 8.67041 15.871 7.1138 15.5946 5.32442C15.1 2.13846 11.7395 0.989192 9.35364 2.35668C7.92796 3.1859 7.37514 4.50975 7.31695 6.02272Z" fill="black"/>
</svg>
