<svg width="46" height="46" viewBox="0 0 46 46" fill="none" xmlns="http://www.w3.org/2000/svg">
<path d="M23 2.875L5.75 8.625V25.875C5.75 35.4029 13.4721 43.125 23 43.125C32.5279 43.125 40.25 35.4029 40.25 25.875V8.625L23 2.875ZM37.0156 25.875C37.0156 33.615 30.74 39.8906 23 39.8906C15.26 39.8906 8.98438 33.615 8.98438 25.875V11.0508L23 6.10938L37.0156 11.0508V25.875Z" fill="#FFFDFE"/>
<path d="M16.9984 21.3424C16.8485 21.1918 16.6704 21.0723 16.4742 20.9908C16.278 20.9093 16.0676 20.8673 15.8552 20.8673C15.6427 20.8673 15.4323 20.9093 15.2361 20.9908C15.0399 21.0723 14.8618 21.1918 14.7119 21.3424C14.5613 21.4923 14.4418 21.6704 14.3603 21.8666C14.2788 22.0628 14.2368 22.2732 14.2368 22.4856C14.2368 22.6981 14.2788 22.9085 14.3603 23.1047C14.4418 23.3009 14.5613 23.479 14.7119 23.6289L20.5248 29.4418L20.6191 29.5361C20.7609 29.6782 20.9293 29.7909 21.1147 29.8678C21.3001 29.9446 21.4988 29.9842 21.6995 29.9842C21.9002 29.9842 22.0989 29.9446 22.2843 29.8678C22.4697 29.7909 22.6381 29.6782 22.7799 29.5361L32.8199 19.4961C32.962 19.3543 33.0747 19.1859 33.1515 19.0005C33.2284 18.8151 33.268 18.6164 33.268 18.4157C33.268 18.215 33.2284 18.0163 33.1515 17.8309C33.0747 17.6455 32.962 17.4771 32.8199 17.3354L32.6941 17.2096C32.5524 17.0675 32.384 16.9548 32.1986 16.8779C32.0132 16.8011 31.8145 16.7615 31.6138 16.7615C31.4131 16.7615 31.2143 16.8011 31.029 16.8779C30.8436 16.9548 30.6752 17.0675 30.5334 17.2096L21.6973 26.0412L16.9984 21.3424Z" fill="#FFFDFE"/>
</svg>
