<svg width="46" height="46" viewBox="0 0 46 46" fill="none" xmlns="http://www.w3.org/2000/svg">
<g clip-path="url(#clip0)">
<path d="M25.0854 0.134852C22.288 -0.56451 19.6895 1.55113 19.5023 4.29006C19.2916 7.36549 18.8292 10.1893 18.2498 11.8689C17.8841 12.9223 16.8482 14.8332 15.2066 16.665C13.5767 18.488 11.4552 20.112 8.97085 20.7909C7.00445 21.3264 5 23.0294 5 25.5167V37.2244C5 39.6971 6.99567 41.5084 9.23714 41.7454C12.3682 42.079 13.8137 42.9598 15.2885 43.8611L15.429 43.9489C16.2249 44.4317 17.1203 44.9672 18.2674 45.3651C19.4291 45.7631 20.7869 46.0001 22.5572 46.0001H32.7989C35.5408 46.0001 37.4779 44.6043 38.4582 42.8866C38.932 42.0761 39.188 41.1567 39.2014 40.2179C39.2014 39.7732 39.1341 39.305 38.9761 38.8602C39.5643 38.0906 40.0881 37.1688 40.4041 36.2237C40.726 35.258 40.9074 33.9939 40.4158 32.8615C40.6177 32.4811 40.767 32.0743 40.8811 31.6822C41.1064 30.8921 41.2117 30.0201 41.2117 29.1745C41.2117 28.3317 41.1064 27.4626 40.8811 26.6696C40.7787 26.3051 40.6436 25.9505 40.4773 25.6104C40.9896 24.8814 41.3193 24.0399 41.4385 23.1568C41.5576 22.2738 41.4628 21.3751 41.162 20.5363C40.5592 18.804 39.1663 17.3175 37.6506 16.8142C35.1721 15.989 32.3746 16.0066 30.2882 16.1968C29.8551 16.2357 29.4229 16.2845 28.9919 16.3431C30.007 11.9959 29.9448 7.46649 28.8105 3.14884C28.6132 2.45705 28.2346 1.83054 27.714 1.3341C27.1934 0.83765 26.5496 0.489294 25.8492 0.325055L25.0854 0.134852ZM32.7989 43.0768H22.5572C21.0648 43.0768 20.0319 42.8749 19.2213 42.5969C18.3991 42.3131 17.7407 41.9298 16.9506 41.4469L16.8336 41.3767C15.2095 40.3847 13.328 39.2377 9.54732 38.8368C8.57289 38.7314 7.9262 37.9882 7.9262 37.2274V25.5167C7.9262 24.7735 8.58752 23.9278 9.74045 23.6147C12.9446 22.7368 15.5255 20.7002 17.3895 18.6167C19.2477 16.5391 20.503 14.3006 21.0122 12.8287C21.7232 10.7804 22.2031 7.65519 22.4226 4.48904C22.4958 3.42975 23.476 2.75087 24.3744 2.97327L25.141 3.1664C25.6092 3.28344 25.896 3.58484 25.9838 3.91258C27.1788 8.46581 27.0315 13.2675 25.5595 17.7389C25.4762 17.9876 25.4612 18.2541 25.5162 18.5105C25.5712 18.767 25.6942 19.0039 25.8722 19.1965C26.0501 19.3892 26.2766 19.5304 26.5279 19.6055C26.7792 19.6806 27.0461 19.6868 27.3006 19.6233L27.3094 19.6204L27.3503 19.6116L27.52 19.5707C28.5207 19.3582 29.5329 19.2048 30.5516 19.1113C32.4917 18.9357 34.8151 18.9532 36.7259 19.5912C37.238 19.7609 38.0427 20.469 38.3938 21.4932C38.7069 22.3945 38.6484 23.4537 37.6154 24.4838L36.5825 25.5167L37.6154 26.5526C37.7413 26.6784 37.9227 26.9652 38.0661 27.4743C38.2065 27.963 38.2855 28.557 38.2855 29.1745C38.2855 29.7948 38.2065 30.3859 38.0661 30.8775C37.9198 31.3867 37.7413 31.6734 37.6154 31.7993L36.5825 32.8322L37.6154 33.8681C37.753 34.0056 37.9344 34.386 37.6301 35.2961C37.313 36.1786 36.8089 36.9821 36.1523 37.6517L35.1194 38.6846L36.1523 39.7205C36.1699 39.7351 36.2723 39.8668 36.2723 40.2179C36.2593 40.6472 36.1375 41.066 35.9182 41.4352C35.4354 42.278 34.4464 43.0739 32.7989 43.0739V43.0768Z" fill="#FFFDFE"/>
</g>
<defs>
<clipPath id="clip0">
<rect width="46" height="46" fill="white"/>
</clipPath>
</defs>
</svg>
