<svg width="23" height="23" viewBox="0 0 23 23" fill="none" xmlns="http://www.w3.org/2000/svg">
<path d="M23 3.56567C22.9045 3.7229 22.8259 3.89697 22.708 4.03174C22.5059 4.26196 22.2251 4.31811 21.9331 4.31811C21.1975 4.31811 20.4675 4.32373 19.7319 4.3125C19.5466 4.3125 19.4624 4.36865 19.395 4.54272C18.8784 5.89038 17.6206 6.73828 16.1943 6.70459C14.9084 6.67651 13.6731 5.81738 13.2183 4.60449C13.134 4.37988 13.033 4.30688 12.7915 4.30688C8.94507 4.3125 5.09863 4.30688 1.2522 4.31811C0.651367 4.32373 0.213379 4.14966 0 3.56567C0 3.43091 0 3.29614 0 3.16138C0.202148 2.58301 0.617676 2.38648 1.21289 2.39209C5.05371 2.40332 8.89453 2.39771 12.7354 2.40332C13.0105 2.40332 13.1284 2.33032 13.2295 2.07202C13.7573 0.679446 15.324 -0.213375 16.7896 0.0449251C18.053 0.269534 18.929 0.988284 19.4006 2.18433C19.468 2.35278 19.541 2.40894 19.7207 2.40332C20.4114 2.39209 21.0964 2.42017 21.7871 2.39209C22.3823 2.36963 22.8035 2.58301 23 3.16138C23 3.29614 23 3.43091 23 3.56567ZM16.2954 4.78418C17.0872 4.78418 17.7441 4.1272 17.7329 3.34106C17.7217 2.55493 17.0759 1.9148 16.2954 1.9148C15.5093 1.9148 14.8579 2.57178 14.8635 3.36352C14.8691 4.15527 15.5037 4.78979 16.2954 4.78418Z" fill="black"/>
<path d="M0 18.4798C0.0786133 18.3394 0.145996 18.1878 0.24707 18.0643C0.47168 17.7835 0.797363 17.7274 1.13428 17.7274C5.00879 17.7274 8.88892 17.7274 12.7634 17.733C13.0273 17.733 13.1284 17.6487 13.2183 17.4129C13.9482 15.5093 16.3235 14.7457 18.0417 15.8463C18.6819 16.2562 19.1423 16.8065 19.4006 17.5196C19.4568 17.6768 19.5354 17.733 19.7095 17.733C20.3889 17.7217 21.074 17.7498 21.7534 17.7217C22.3542 17.6993 22.7866 17.8958 23 18.4798C23 18.6146 23 18.7493 23 18.8841C22.7979 19.4625 22.3823 19.6758 21.7871 19.6534C21.1077 19.6309 20.4226 19.6534 19.7432 19.6422C19.5466 19.6365 19.4624 19.7039 19.395 19.8836C19.0076 20.8887 18.2888 21.5682 17.2668 21.8883C15.5991 22.4105 13.8359 21.5457 13.207 19.9117C13.1284 19.7039 13.0273 19.6422 12.8083 19.6422C8.94507 19.6478 5.08179 19.6422 1.21851 19.6534C0.623291 19.6534 0.207764 19.4625 0.00561523 18.8841C0 18.7493 0 18.6146 0 18.4798ZM16.2898 17.2557C15.5037 17.2557 14.8635 17.8902 14.8579 18.6763C14.8523 19.4681 15.5037 20.1251 16.2898 20.1251C17.0759 20.1251 17.7385 19.4569 17.7273 18.6763C17.7161 17.8902 17.0759 17.2557 16.2898 17.2557Z" fill="black"/>
<path d="M22.9998 11.2024C22.8088 11.792 22.3989 11.9885 21.7981 11.9829C17.9348 11.9717 14.0715 11.9773 10.2083 11.9717C9.97803 11.9717 9.87134 12.0391 9.79272 12.258C9.16382 13.8921 7.36694 14.7568 5.69922 14.2178C4.68848 13.8865 3.98096 13.207 3.59912 12.2131C3.53174 12.0391 3.45312 11.9717 3.26221 11.9773C2.57153 11.9885 1.88647 11.9661 1.1958 11.9885C0.594971 12.011 0.185059 11.792 -0.00585938 11.208C-0.00585938 11.0901 -0.00585938 10.9665 -0.00585938 10.8486C0.185059 10.2646 0.594971 10.0456 1.1958 10.0681C1.86963 10.0906 2.54346 10.0625 3.21728 10.0793C3.44751 10.0849 3.53735 10.0063 3.61597 9.80419C4.24487 8.16453 6.04175 7.29979 7.70386 7.83885C8.69775 8.16453 9.40527 8.82152 9.78711 9.79857C9.87134 10.0119 9.97241 10.0849 10.2026 10.0793C14.0659 10.0681 17.9292 10.0793 21.7925 10.0681C22.3933 10.0681 22.8032 10.2646 22.9941 10.8486C22.9998 10.9609 22.9998 11.0845 22.9998 11.2024ZM8.13623 11.0115C8.13062 10.2253 7.49048 9.58519 6.70435 9.58519C5.91821 9.58519 5.25562 10.2534 5.26685 11.0339C5.27808 11.8201 5.92383 12.4602 6.70435 12.4602C7.49609 12.4602 8.14746 11.8032 8.13623 11.0115Z" fill="black"/>
</svg>
