<svg width="20" height="27" viewBox="0 0 20 27" fill="none" xmlns="http://www.w3.org/2000/svg">
<path d="M2.97196 26.9993C2.524 26.8364 2.03531 26.7346 1.62807 26.4902C0.324902 25.6961 -0.123061 24.4744 0.0398345 22.9676C0.223092 21.0943 0.385988 19.221 0.548884 17.3477C0.71178 15.5151 0.895038 13.6825 1.05793 11.8296C1.18011 10.445 1.30228 9.03999 1.42445 7.63501C1.48554 7.06487 1.79097 6.75944 2.3611 6.75944C3.15522 6.75944 3.94934 6.75944 4.80454 6.75944C4.80454 6.65763 4.80454 6.55582 4.80454 6.45401C4.84526 5.68026 4.78418 4.88614 4.90635 4.11238C5.47649 0.752655 9.44707 -1.05956 12.3792 0.671206C14.0489 1.66894 14.9041 3.17573 14.9448 5.13048C14.9448 5.6599 14.9448 6.18931 14.9448 6.75944C15.4539 6.75944 15.9222 6.75944 16.4109 6.75944C16.757 6.75944 17.1235 6.75944 17.4697 6.75944C17.938 6.7798 18.2842 7.08523 18.3249 7.55356C18.5285 9.71193 18.7118 11.8703 18.9154 14.0287C19.1394 16.4518 19.3634 18.8545 19.5873 21.2775C19.6688 22.1327 19.7706 22.988 19.7502 23.8432C19.7095 25.3907 18.5082 26.6938 16.981 26.9382C16.9199 26.9382 16.8588 26.9789 16.8181 26.9993C12.1756 26.9993 7.57377 26.9993 2.97196 26.9993ZM3.05341 8.44949C3.03305 8.57166 3.03305 8.67347 3.01269 8.77528C2.91088 9.8341 2.82943 10.8929 2.72762 11.9518C2.56472 13.8047 2.38146 15.6373 2.21857 17.4902C2.07603 19.1599 1.91314 20.8092 1.7706 22.4789C1.72988 22.8251 1.70952 23.1712 1.68916 23.497C1.66879 24.5558 2.38146 25.3092 3.44029 25.3092C4.68237 25.3092 5.94481 25.3092 7.18689 25.3092C10.2005 25.3092 13.214 25.3092 16.2276 25.3092C16.6959 25.3092 17.1032 25.2074 17.4697 24.902C18.0195 24.4337 18.1009 23.8432 18.0398 23.1712C17.8973 21.6237 17.7548 20.0558 17.6122 18.5083C17.3272 15.4133 17.0421 12.3386 16.7774 9.24361C16.757 8.9789 16.7163 8.71419 16.6959 8.44949C16.0851 8.44949 15.5353 8.44949 14.9448 8.44949C14.9448 9.26397 14.9448 10.0784 14.9448 10.8929C14.9448 11.4427 14.5987 11.8092 14.11 11.8092C13.6213 11.8092 13.2751 11.4427 13.2751 10.8929C13.2751 10.1803 13.2751 9.44723 13.2751 8.73456C13.2751 8.63275 13.2751 8.5513 13.2751 8.46985C11.0149 8.46985 8.77513 8.46985 6.51495 8.46985C6.51495 9.28433 6.51495 10.0988 6.51495 10.8929C6.51495 11.4427 6.16879 11.8296 5.65974 11.8296C5.17106 11.8296 4.8249 11.4427 4.8249 10.9133C4.8249 10.2006 4.8249 9.46759 4.8249 8.75492C4.8249 8.65311 4.8249 8.57166 4.8249 8.46985C4.21404 8.44949 3.64391 8.44949 3.05341 8.44949ZM13.214 6.73908C13.214 6.00605 13.2751 5.27302 13.1937 4.56035C13.0308 3.13501 11.8702 1.95401 10.4855 1.73003C8.95839 1.50605 7.53305 2.21872 6.8611 3.56261C6.33169 4.58071 6.55567 5.68026 6.49459 6.75944C8.75477 6.73908 10.9742 6.73908 13.214 6.73908Z" fill="black"/>
</svg>
