<svg width="23" height="29" viewBox="0 0 23 29" fill="none" xmlns="http://www.w3.org/2000/svg">
<g clip-path="url(#clip0)">
<path d="M19.7713 -1.62764e-05C20.3831 0.362484 20.4963 0.60415 20.3075 1.29894C19.7185 3.42108 19.6128 5.55076 20.0508 7.71066C20.0734 7.83149 20.0281 7.99009 19.9601 8.09582C19.356 9.01717 18.7518 9.94608 18.125 10.8523C17.3622 11.97 16.9997 13.1935 16.9997 14.5528C17.0073 19.2427 17.0073 23.9325 17.0073 28.6299C17.0073 28.7432 17.0073 28.8565 17.0073 28.9849C13.0349 28.9849 9.09269 28.9849 5.11274 28.9849C5.11274 28.864 5.11274 28.7508 5.11274 28.645C5.11274 24.1364 5.10519 19.6203 5.12029 15.1117C5.12785 13.3294 4.50857 11.819 3.23227 10.5729C2.77159 10.1273 2.32602 9.66665 1.86534 9.21352C1.75961 9.11535 1.72185 9.02472 1.76717 8.87368C2.50727 6.34373 2.49217 3.82889 1.78982 1.29894C1.59347 0.60415 1.70675 0.362484 2.32602 -1.62764e-05C3.23227 -1.62764e-05 4.13852 -1.62764e-05 5.04477 -1.62764e-05C5.12029 0.672119 5.15805 1.35181 5.27889 2.01639C5.58097 3.61743 6.10207 5.1354 7.07628 6.45701C9.02472 9.10024 12.5138 9.28905 14.6737 6.87238C15.4138 6.04165 15.9047 5.06743 16.2672 4.02524C16.7279 2.71873 17.0148 1.38201 17.045 -0.00756836C17.9588 -1.62764e-05 18.8651 -1.62764e-05 19.7713 -1.62764e-05ZM13.5937 18.7518C13.5937 18.6083 13.5937 18.5101 13.5937 18.4044C13.5937 16.5768 13.5937 14.7416 13.5937 12.914C13.5937 12.2948 13.2539 11.9549 12.6271 11.9549C10.9958 11.9549 9.36457 11.9549 7.73332 11.9549C7.14425 11.9549 6.79686 12.3023 6.79686 12.8838C6.79686 13.9562 6.79686 15.0362 6.79686 16.1086C6.79686 16.6976 7.14425 17.045 7.72577 17.045C7.97498 17.045 8.2242 17.045 8.47342 17.045C8.47342 17.6341 8.47342 18.1854 8.47342 18.7443C8.19399 18.7443 7.94478 18.7443 7.688 18.7443C7.15936 18.7594 6.80441 19.1068 6.79686 19.6354C6.78931 20.738 6.78931 21.8406 6.79686 22.9432C6.79686 23.4794 7.15181 23.8344 7.68045 23.8419C9.92342 23.8495 12.1739 23.8495 14.4169 23.8419C14.9305 23.8419 15.2854 23.4794 15.293 22.9659C15.3005 21.8557 15.3005 20.738 15.293 19.6278C15.293 19.1143 14.9305 18.7594 14.4169 18.7518C14.1526 18.7443 13.8883 18.7518 13.5937 18.7518Z" fill="#292929"/>
<path d="M18.6914 29C18.6914 28.8565 18.6914 28.7508 18.6914 28.6526C18.6914 23.9477 18.6989 19.2352 18.6838 14.5302C18.6838 13.5333 18.9406 12.6346 19.5146 11.819C19.9148 11.2375 20.3 10.6484 20.7153 10.0216C20.7682 10.1349 20.806 10.218 20.8437 10.301C21.1836 10.943 21.5385 11.5773 21.8633 12.2193C21.9765 12.4458 22.0747 12.7102 22.0823 12.9594C22.0974 17.9815 22.0898 22.9961 22.0898 28.0182C22.0898 28.6753 21.7575 29.0076 21.1005 29.0076C20.3075 29 19.5146 29 18.6914 29Z" fill="#292929"/>
<path d="M1.03464 10.7994C1.91823 11.6906 2.93776 12.476 3.23229 13.7825C3.31536 14.1299 3.38333 14.4849 3.38333 14.8398C3.39844 19.4919 3.39844 24.144 3.39844 28.7961C3.39844 28.8489 3.39089 28.9093 3.39089 29C3.10391 29 2.82448 29 2.54505 29C2.0013 29 1.45 29 0.90625 29C0.354948 28.9924 0 28.645 0 28.0937C0 23.0187 0 17.9437 0.00755208 12.8612C0.00755208 12.695 0.0453125 12.5213 0.128385 12.3778C0.407813 11.8567 0.717448 11.3507 1.03464 10.7994Z" fill="#292929"/>
<path d="M15.3232 0.664526C15.2326 1.14031 15.1646 1.62364 15.0589 2.09187C14.8097 3.19447 14.4547 4.25177 13.8203 5.19578C13.2917 5.98119 12.6271 6.58536 11.668 6.78171C10.5276 7.01583 9.56096 6.65333 8.77554 5.8226C7.8995 4.89369 7.46148 3.74578 7.14429 2.545C6.9857 1.92572 6.87997 1.2989 6.75159 0.672078C6.78935 0.649422 6.83466 0.619214 6.87242 0.596558C6.90263 0.656974 6.92528 0.732495 6.9706 0.78536C7.58987 1.55567 8.28466 2.24291 9.12294 2.77156C10.3992 3.58718 11.668 3.59473 12.9518 2.79421C13.7977 2.26557 14.4849 1.57833 15.1117 0.815568C15.157 0.755151 15.2099 0.702287 15.2552 0.64187C15.2703 0.656974 15.3005 0.656974 15.3232 0.664526Z" fill="#292929"/>
<path d="M8.51123 22.1276C8.51123 21.5688 8.51123 21.025 8.51123 20.4435C8.768 20.4435 9.01722 20.4435 9.26644 20.4435C9.84795 20.436 10.1953 20.0961 10.1953 19.5071C10.1953 18.4347 10.1953 17.3547 10.1953 16.2823C10.1953 15.6933 9.84795 15.3534 9.25889 15.3459C9.01722 15.3459 8.768 15.3459 8.51123 15.3459C8.51123 14.7719 8.51123 14.2281 8.51123 13.6617C9.62894 13.6617 10.7391 13.6617 11.8946 13.6617C11.8946 13.7599 11.8946 13.8581 11.8946 13.9563C11.8946 15.7839 11.8946 17.619 11.8946 19.4466C11.8946 20.1112 12.2193 20.436 12.8839 20.4435C13.1105 20.4435 13.337 20.4435 13.5787 20.4435C13.5787 21.0099 13.5787 21.5612 13.5787 22.1276C11.8946 22.1276 10.218 22.1276 8.51123 22.1276Z" fill="#292929"/>
</g>
<defs>
<clipPath id="clip0">
<rect width="22.0898" height="29" fill="white"/>
</clipPath>
</defs>
</svg>
