<svg width="23" height="29" viewBox="0 0 23 29" fill="none" xmlns="http://www.w3.org/2000/svg">
<g clip-path="url(#clip0)">
<path d="M0.63421 28.9999C0.143452 28.7734 0 28.3884 0 27.8599C0.0151002 22.907 0.00755012 17.9541 0.0151002 13.0012C0.0151002 12.7596 0.067951 12.4803 0.196303 12.284C2.39339 8.86378 2.83884 5.18687 1.78938 1.29856C1.75163 1.14756 1.71388 0.981459 1.71388 0.830456C1.71388 0.377449 2.07628 0.0150438 2.52929 0.00749364C3.68446 -5.64744e-05 4.83207 -5.64744e-05 5.98724 0.00749364C6.28925 0.00749364 6.51575 0.173596 6.6894 0.42275C7.30096 1.26081 8.00312 2.00072 8.85629 2.60473C10.3739 3.6693 11.7253 3.6693 13.2505 2.60473C14.081 2.02337 14.7831 1.32121 15.3645 0.498251C15.6061 0.158496 15.9005 0.00749364 16.3158 0.00749364C17.3351 0.0225939 18.3543 0.0150438 19.3736 0.0150438C20.1739 0.0150438 20.5363 0.475601 20.3249 1.24571C19.9625 2.58963 19.736 3.94865 19.7662 5.35298C19.8266 7.78411 20.491 10.034 21.7896 12.0877C22.001 12.4199 22.0916 12.7521 22.0916 13.1447C22.0841 18.0523 22.0841 22.9598 22.0916 27.8674C22.0916 28.3959 21.9482 28.781 21.4574 29.0075C14.5264 28.9999 7.58032 28.9999 0.63421 28.9999ZM5.10388 27.2785C9.09034 27.2785 13.0315 27.2785 16.9953 27.2785C16.9953 27.1426 16.9953 27.0369 16.9953 26.9237C16.9953 22.7786 16.9953 18.6412 16.9953 14.4962C16.9953 13.8016 17.0784 13.122 17.3049 12.4652C17.5918 11.6045 18.0976 10.8646 18.6261 10.1398C18.7922 9.91325 18.8224 9.71694 18.7318 9.43759C18.1731 7.65576 17.9542 5.82863 18.1203 3.96375C18.1882 3.21629 18.309 2.46883 18.4072 1.72137C17.9164 1.72137 17.403 1.72137 16.8896 1.72137C16.8066 2.07623 16.7386 2.41598 16.6556 2.75574C16.3007 4.16006 15.7797 5.48133 14.8586 6.6214C12.7974 9.15823 9.27154 9.14313 7.23301 6.5912C6.45535 5.63233 5.95704 4.54511 5.61729 3.37485C5.45873 2.82369 5.33038 2.27253 5.19448 1.72137C4.67352 1.72137 4.16766 1.72137 3.65426 1.72137C3.66936 1.81952 3.67691 1.90257 3.69956 1.98562C4.28847 4.75652 4.09971 7.47456 3.1333 10.1398C3.0578 10.3436 3.09555 10.4569 3.24655 10.6003C4.49987 11.831 5.11143 13.3259 5.10388 15.0926C5.08878 19.0338 5.09633 22.9825 5.09633 26.9237C5.10388 27.0369 5.10388 27.1502 5.10388 27.2785ZM20.3929 27.2861C20.3929 27.1955 20.3929 27.1275 20.3929 27.0671C20.3929 22.4615 20.3929 17.8635 20.3929 13.2579C20.3929 13.1824 20.408 13.0994 20.3702 13.039C20.1286 12.6011 19.8719 12.1707 19.6077 11.7102C19.0036 12.5105 18.6941 13.3788 18.6941 14.3527C18.6941 18.5883 18.6941 22.8239 18.6941 27.0596C18.6941 27.1351 18.7016 27.203 18.7092 27.2861C19.2679 27.2861 19.8115 27.2861 20.3929 27.2861ZM2.30279 12.0575C2.16688 12.2915 2.06118 12.5029 1.92528 12.6992C1.75163 12.9408 1.69878 13.1975 1.70633 13.492C1.71388 17.9843 1.71388 22.4691 1.71388 26.9614C1.71388 27.0671 1.71388 27.1804 1.71388 27.2861C2.30279 27.2861 2.85394 27.2861 3.41265 27.2861C3.41265 26.6594 3.41265 26.0554 3.41265 25.4589C3.41265 21.9632 3.41265 18.46 3.41265 14.9643C3.4051 13.862 3.0427 12.9031 2.30279 12.0575ZM7.61052 3.78255C7.61052 3.84295 7.60297 3.87315 7.61052 3.8958C7.91252 4.62061 8.29758 5.30013 8.86384 5.85883C9.9586 6.9385 11.5064 7.1046 12.7446 6.27409C13.4921 5.77578 13.9602 5.05097 14.3377 4.25821C14.4056 4.11476 14.4585 3.9713 14.5189 3.82785C12.1934 5.53418 9.90575 5.53418 7.61052 3.78255Z" fill="#292929"/>
<path d="M13.5978 18.7469C13.8922 18.7469 14.1565 18.7394 14.4208 18.7469C14.9342 18.7545 15.2966 19.1093 15.2966 19.6227C15.3041 20.7326 15.3041 21.85 15.2966 22.9599C15.2966 23.4884 14.9342 23.8432 14.3981 23.8432C12.1633 23.8432 9.92843 23.8432 7.69359 23.8432C7.16508 23.8432 6.81023 23.4808 6.81023 22.9523C6.80268 21.85 6.80268 20.7477 6.81023 19.6454C6.81023 19.1169 7.16508 18.762 7.70114 18.7545C7.95785 18.7469 8.207 18.7545 8.48636 18.7545C8.48636 18.1957 8.48636 17.6446 8.48636 17.0557C8.24475 17.0557 7.9956 17.0557 7.73889 17.0557C7.15753 17.0481 6.81023 16.7084 6.81023 16.1195C6.81023 15.0473 6.81023 13.9677 6.81023 12.8956C6.81023 12.3067 7.15753 11.9594 7.73889 11.9594C9.37727 11.9594 11.0232 11.9594 12.6616 11.9594C13.258 11.9594 13.5978 12.3067 13.5978 12.9107C13.5978 14.7378 13.5978 16.5725 13.5978 18.3996C13.5978 18.4978 13.5978 18.6035 13.5978 18.7469ZM8.51656 22.1218C10.2229 22.1218 11.9066 22.1218 13.5827 22.1218C13.5827 21.5555 13.5827 21.0119 13.5827 20.4457C13.3486 20.4457 13.1221 20.4457 12.8956 20.4457C12.2161 20.4457 11.899 20.121 11.899 19.434C11.899 17.6144 11.899 15.7948 11.899 13.9752C11.899 13.8771 11.899 13.7714 11.899 13.6657C10.7514 13.6657 9.63397 13.6657 8.52411 13.6657C8.52411 14.2319 8.52411 14.7831 8.52411 15.3494C8.80346 15.3494 9.05262 15.3494 9.30932 15.3494C9.83783 15.3569 10.2002 15.7042 10.2002 16.2403C10.2078 17.3426 10.2078 18.4449 10.2002 19.5548C10.2002 20.0908 9.84538 20.4381 9.31687 20.4457C9.05262 20.4532 8.79591 20.4457 8.51656 20.4457C8.51656 21.0195 8.51656 21.5631 8.51656 22.1218Z" fill="#292929"/>
</g>
<defs>
<clipPath id="clip0">
<rect width="22.0992" height="29" fill="white"/>
</clipPath>
</defs>
</svg>
