<svg width="64" height="47" viewBox="0 0 64 47" fill="none" xmlns="http://www.w3.org/2000/svg">
<path d="M31.6945 31.7484C36.3341 31.7484 40.0952 27.9873 40.0952 23.3477C40.0952 18.7081 36.3341 14.947 31.6945 14.947C27.0549 14.947 23.2938 18.7081 23.2938 23.3477C23.2938 27.9873 27.0549 31.7484 31.6945 31.7484Z" fill="#FFFDFE"/>
<path d="M63.0711 22.6336C60.6009 16.2441 56.3127 10.7185 50.7363 6.73964C45.16 2.7608 38.5399 0.503152 31.6945 0.245728C24.849 0.503152 18.229 2.7608 12.6526 6.73964C7.07626 10.7185 2.78801 16.2441 0.317866 22.6336C0.151043 23.095 0.151043 23.6003 0.317866 24.0617C2.78801 30.4512 7.07626 35.9768 12.6526 39.9556C18.229 43.9345 24.849 46.1921 31.6945 46.4495C38.5399 46.1921 45.16 43.9345 50.7363 39.9556C56.3127 35.9768 60.6009 30.4512 63.0711 24.0617C63.2379 23.6003 63.2379 23.095 63.0711 22.6336ZM31.6945 36.9988C28.9945 36.9988 26.3552 36.1981 24.1103 34.6981C21.8654 33.1981 20.1157 31.0661 19.0825 28.5717C18.0492 26.0773 17.7789 23.3325 18.3056 20.6844C18.8324 18.0364 20.1325 15.604 22.0417 13.6948C23.9508 11.7857 26.3832 10.4855 29.0313 9.95881C31.6793 9.43208 34.4241 9.70242 36.9185 10.7356C39.4129 11.7689 41.5449 13.5186 43.045 15.7635C44.545 18.0084 45.3456 20.6477 45.3456 23.3476C45.34 26.9664 43.9 30.4354 41.3411 32.9943C38.7822 35.5532 35.3133 36.9932 31.6945 36.9988Z" fill="#FFFDFE"/>
</svg>
